<?xml version="1.0" encoding="utf-8"?>
<!-- Generator: Adobe Illustrator 25.0.1, SVG Export Plug-In . SVG Version: 6.00 Build 0)  -->
<svg version="1.1" id="Ebene_1" xmlns="http://www.w3.org/2000/svg" xmlns:xlink="http://www.w3.org/1999/xlink" x="0px" y="0px"
	 viewBox="0 0 1969.46 1676.56" style="enable-background:new 0 0 1969.46 1676.56;" xml:space="preserve">
<style type="text/css">
	.st0{fill:#12A2C9;}
	.st1{fill:#FFFFFF;}
	.st2{font-family:'QTVagaRound-Bold';}
	.st3{font-size:125px;}
	.st4{letter-spacing:62;}
	.st5{font-size:750px;}
	.st6{letter-spacing:-37;}
	.st7{fill:#010010;}
	.st8{font-size:165.8228px;}
	.st9{letter-spacing:16;}
</style>
<g id="Winter">
	<g>
		<path class="st0" d="M1398.99,76.86c364.85,172.48,611.41,653.42,529.59,993.95c-82.92,341.64-494.21,542.86-890.02,591.51
			c-395.81,50.86-775.04-51.96-934.25-326.16C-53.79,1063.07,7.02,617.51,280.11,326.73C552.09,37.06,1034.14-95.62,1398.99,76.86z"
			/>
	</g>
	<text transform="matrix(1 0 0 1 408.8881 145.3295)"><tspan x="0" y="0" class="st1 st2 st3 st4">SPINSHAR</tspan><tspan x="1089.49" y="0" class="st1 st2 st3">E</tspan></text>
	<text transform="matrix(1 0 0 1 -1.220703e-04 749.2299)"><tspan x="0" y="0" class="st1 st2 st5 st6">SPEEN</tspan><tspan x="108.74" y="550" class="st1 st2 st5 st6">OPEN</tspan></text>
	<g>
		<path class="st1" d="M1672.09,1676.56H297.42c-72.35,0-131-58.65-131-131v0c0-72.35,58.65-131,131-131h1374.67
			c72.35,0,131,58.65,131,131v0C1803.09,1617.91,1744.44,1676.56,1672.09,1676.56z"/>
		<text transform="matrix(1 0 0 1 393.6088 1599.6069)" class="st7 st2 st8 st9">WINTER 2021</text>
	</g>
	<g>
		<polygon class="st0" points="143.76,807.56 80.76,1040.56 112.26,1236.73 238.76,1350.56 544.76,1342.56 643.76,1170.56 
			643.76,966.14 553.93,807.56 389.36,749.23 		"/>
	</g>
	<g id="DJRound_4_">
		<g>
			<circle class="st1" cx="360.76" cy="1059.56" r="38.56"/>
		</g>
		<path class="st1" d="M360.76,796.56c-145.25,0-263,117.75-263,263s117.75,263,263,263s263-117.75,263-263
			S506.01,796.56,360.76,796.56z M218.11,916.91c-9.42,9.42-17.96,19.78-25.41,30.79c-7.51,11.12-13.96,23-19.17,35.33
			c-5.31,12.55-9.38,25.68-12.11,39.03c-1.22,5.99-6.49,10.11-12.37,10.11c-0.84,0-1.69-0.08-2.55-0.26
			c-6.84-1.4-11.25-8.08-9.85-14.92c3.07-14.98,7.64-29.72,13.6-43.81c5.85-13.83,13.09-27.16,21.51-39.63
			c8.34-12.35,17.93-23.96,28.48-34.52c10.55-10.55,22.17-20.13,34.52-28.48c12.47-8.43,25.81-15.66,39.63-21.51
			c14.09-5.96,28.82-10.53,43.81-13.6c15.37-3.14,31.18-4.74,47-4.74c6.98,0,12.64,5.66,12.64,12.64c0,6.98-5.66,12.64-12.64,12.64
			c-14.12,0-28.23,1.42-41.93,4.23c-13.35,2.73-26.48,6.81-39.03,12.11c-12.32,5.21-24.21,11.66-35.33,19.18
			C237.88,898.94,227.52,907.49,218.11,916.91z M360.76,1149.96c-49.93,0-90.41-40.48-90.41-90.41c0-49.93,40.48-90.41,90.41-90.41
			s90.41,40.48,90.41,90.41C451.16,1109.49,410.69,1149.96,360.76,1149.96z"/>
	</g>
</g>
</svg>
