<?xml version="1.0" encoding="utf-8"?>
<!-- Generator: Adobe Illustrator 28.2.0, SVG Export Plug-In . SVG Version: 6.00 Build 0)  -->
<svg version="1.1" id="Ebene_1" xmlns="http://www.w3.org/2000/svg" xmlns:xlink="http://www.w3.org/1999/xlink" x="0px" y="0px"
	 viewBox="0 0 560.67 419.29" style="enable-background:new 0 0 560.67 419.29;" xml:space="preserve">
<style type="text/css">
	.st0{fill:#111111;}
	.st1{fill:#DCDCDC;}
	.st2{fill:#DCDCDC;stroke:#111111;stroke-width:5;stroke-miterlimit:10;}
	.st3{font-family:'Troglodyte';}
	.st4{font-size:35px;}
	.st5{font-size:25px;}
</style>
<g id="LogoWinter">
	<g id="Circles_00000092445139239549448860000015096454488681560728_">
		<path class="st0" d="M271.23,298.29c-55.83-12.8-111.6-29.03-162.39-56.25c-26.49-15.02-55.45-34.39-67.01-64.7
			C29.33,142.98,53.09,116.5,85.78,109c17.88-4.42,36.54-4.77,54.41-3.91c34.66,1.89,68.56,8.47,102.39,15.42
			c66.78,14.6,133.44,29.87,198.26,51.79c31.71,11.51,70.84,26.8,91.64,54.74c14.32,19.8,13.64,44.44-4.53,61.76
			c-14.02,13.72-33.41,20.18-51.37,24.05c-34.45,6.99-69.55,5.65-104.19,2.25C338.33,311.68,304.54,305.93,271.23,298.29z
			 M272.58,292.51c64.69,15.52,134.93,19.89,198.84,0.75c13.9-4.57,28.7-10.89,38.35-21.77c2.75-3.2,4.54-6.58,5.59-9.91
			c1.3-3.31,1.91-6.65,1.46-10.2c-2.15-13.56-13.91-24.47-24.37-33.17c-35.1-27.13-77.47-44.44-119.38-58.52
			c-74.79-23.4-153.96-38.84-232.54-33.14c-19.97,1.98-54.48,6.15-66.03,23.22c-1.57,2.55-2.16,5.2-2.37,8.16
			c-0.51,2.84-0.58,6.13,0.29,9.86c3.38,13.45,13.44,25.43,23.3,35.41C143.56,249.06,208.41,277.11,272.58,292.51z"/>
		<path class="st0" d="M246.15,287.92c-48.76-30.04-96.38-63.32-135.74-105.4c-20.27-22.73-41.47-50.37-42.69-82.79
			c-0.96-31.6,23.63-50.71,53.66-50.95c50.35-0.21,111.6,36.81,154.71,61.57c58.55,35.26,116.79,71.13,171.13,112.7
			c26.37,21.11,58.45,48.08,69.22,81.26c7.21,23.35-1.35,46.47-24.12,57.04c-17.68,8.49-38.12,8.38-56.37,6.28
			c-34.88-4.44-67.68-16.98-99.39-31.32C305.4,322.14,275.25,305.85,246.15,287.92z M249.28,282.87
			c56.28,35.47,121.4,62.16,188.07,64.55c14.63,0.13,30.68-1.1,43.31-8.3c3.64-2.15,6.41-4.77,8.47-7.59
			c2.29-2.72,3.94-5.69,4.66-9.19c2.32-13.53-5.32-27.64-12.43-39.24c-24.53-36.96-59.1-66.96-94.28-93.75
			C323.77,143.17,253.74,103.13,177.5,83.3c-19.55-4.53-53.57-11.67-69.99,0.79c-2.3,1.91-3.71,4.23-4.86,6.97
			c-1.4,2.52-2.52,5.62-2.9,9.43c-1.11,13.82,4.56,28.4,10.69,41.02C141.05,200.3,193.46,247.69,249.28,282.87z"/>
		<path class="st0" d="M225.65,269.94c-36.47-44.16-70.82-91.01-94.51-143.53c-11.86-28.05-23.02-61.05-13.72-92.13
			c11.03-34.87,46.01-41.39,76.49-27.43c16.87,7.39,31.88,18.48,45.52,30.05c26.33,22.61,49.21,48.48,71.8,74.6
			c44.06,52.26,87.62,104.98,125.66,161.85c18.15,28.48,39.83,64.36,39.33,99.24c-0.71,24.43-16.26,43.55-41.22,46.22
			c-19.47,2.34-38.79-4.36-55.39-12.22c-31.58-15.45-58.59-37.89-83.99-61.69C270.71,321.44,247.42,296.3,225.65,269.94z
			 M230.24,266.18c41.84,51.72,94.88,97.98,157.22,121.74c13.8,4.84,29.39,8.85,43.68,6.1c4.13-0.86,7.61-2.45,10.47-4.46
			c3.05-1.84,5.56-4.11,7.38-7.2c6.56-12.06,3.88-27.88,0.88-41.16c-11.31-42.9-34.36-82.44-59.02-119.13
			c-45.05-64.12-98.43-124.6-164.21-167.95c-17.09-10.61-46.89-28.31-66.5-21.82c-2.8,1.07-4.88,2.81-6.85,5.03
			c-2.13,1.94-4.19,4.51-5.78,7.99c-5.51,12.72-4.84,28.36-3.1,42.27C154.41,153.12,188.74,214.87,230.24,266.18z"/>
	</g>
	<path class="st0" d="M547.74,169.58c-0.03-0.02-0.05-0.05-0.08-0.07c-0.14-0.14-0.28-0.29-0.42-0.43
		c-0.03-0.02-0.05-0.05-0.08-0.07c-0.14-0.14-0.28-0.29-0.42-0.43c-0.03-0.02-0.05-0.05-0.08-0.07c-0.14-0.14-0.28-0.29-0.42-0.43
		c-0.03-0.02-0.05-0.05-0.08-0.07c-0.14-0.14-0.28-0.29-0.42-0.43c-0.03-0.02-0.05-0.05-0.08-0.07c-0.14-0.14-0.28-0.29-0.42-0.43
		c-0.03-0.02-0.05-0.05-0.08-0.07c-0.14-0.14-0.28-0.29-0.42-0.43c-0.03-0.02-0.05-0.05-0.08-0.07c-0.14-0.14-0.28-0.29-0.42-0.43
		c-0.03-0.02-0.05-0.05-0.08-0.07c-0.14-0.14-0.28-0.29-0.42-0.43c-0.03-0.02-0.05-0.05-0.08-0.07c-0.14-0.14-0.28-0.29-0.42-0.43
		c-0.03-0.02-0.05-0.05-0.08-0.07c-0.14-0.14-0.28-0.29-0.42-0.43c-0.03-0.02-0.05-0.05-0.08-0.07c-0.14-0.14-0.28-0.29-0.42-0.43
		c-0.03-0.02-0.05-0.05-0.08-0.07c-0.14-0.14-0.28-0.29-0.42-0.43c-0.03-0.02-0.05-0.05-0.08-0.07c-0.14-0.14-0.28-0.29-0.42-0.43
		c-0.03-0.02-0.05-0.05-0.08-0.07c-0.14-0.14-0.28-0.29-0.42-0.43c-0.03-0.02-0.05-0.05-0.08-0.07c-0.14-0.14-0.28-0.29-0.42-0.43
		c-0.03-0.02-0.05-0.05-0.08-0.07c-0.14-0.14-0.28-0.29-0.42-0.43c-0.03-0.02-0.05-0.05-0.08-0.07c-0.14-0.14-0.28-0.29-0.42-0.43
		c-0.03-0.02-0.05-0.05-0.08-0.07c-0.14-0.14-0.28-0.29-0.42-0.43c-0.03-0.02-0.05-0.05-0.08-0.07c-0.14-0.14-0.28-0.29-0.42-0.43
		c-0.03-0.02-0.05-0.05-0.08-0.07c-0.14-0.14-0.28-0.29-0.42-0.43c-7.96-7.7-17.54-11.84-28.52-12.34
		c-0.73-0.17-1.49-0.26-2.27-0.26h-50.38c-4.45,0-8.22,2.91-9.52,6.94c-5.42-4.14-11.91-6.31-19-6.31h-54.75
		c-9.57,0-17.89,3.32-24.71,9.86c-1.05,1-2,2.06-2.9,3.15c-0.09-0.09-0.17-0.18-0.26-0.26c-0.02-0.02-0.05-0.04-0.07-0.07
		c-0.14-0.14-0.28-0.29-0.43-0.43c-0.02-0.02-0.05-0.04-0.07-0.07c-0.14-0.14-0.28-0.29-0.43-0.43c-0.02-0.02-0.05-0.04-0.07-0.07
		c-0.14-0.14-0.28-0.29-0.43-0.43c-0.02-0.02-0.05-0.04-0.07-0.07c-0.14-0.14-0.28-0.29-0.43-0.43c-0.02-0.02-0.05-0.04-0.07-0.07
		c-0.14-0.14-0.28-0.29-0.43-0.43c-0.02-0.02-0.05-0.04-0.07-0.07c-0.14-0.14-0.28-0.29-0.43-0.43c-0.02-0.02-0.05-0.04-0.07-0.07
		c-0.14-0.14-0.28-0.29-0.43-0.43c-0.02-0.02-0.05-0.04-0.07-0.07c-0.14-0.14-0.28-0.29-0.43-0.43c-5.92-5.72-13.47-8.74-21.83-8.74
		h-54.75c-9.57,0-17.89,3.32-24.71,9.86c-1.44,1.37-2.72,2.84-3.86,4.37c-0.02-0.02-0.04-0.04-0.06-0.06
		c-0.1-0.11-0.21-0.2-0.32-0.31c-0.06-0.06-0.12-0.13-0.18-0.19c-0.1-0.11-0.21-0.2-0.32-0.31c-0.06-0.06-0.12-0.13-0.18-0.19
		c-0.1-0.11-0.21-0.2-0.32-0.31c-0.06-0.06-0.12-0.13-0.18-0.19c-0.1-0.11-0.21-0.2-0.32-0.31c-0.06-0.06-0.12-0.13-0.18-0.19
		c-0.1-0.11-0.21-0.2-0.32-0.31c-0.06-0.06-0.12-0.13-0.18-0.19c-0.1-0.11-0.21-0.2-0.32-0.31c-0.06-0.06-0.12-0.13-0.18-0.19
		c-0.1-0.11-0.21-0.2-0.32-0.31c-0.06-0.06-0.12-0.13-0.18-0.19c-0.1-0.11-0.21-0.2-0.32-0.31c-0.06-0.06-0.12-0.13-0.18-0.19
		c-6.55-6.65-14.92-10.16-24.19-10.16h-72.23c-4.48,0-8.28,2.95-9.55,7.02c-0.29-0.22-0.56-0.45-0.86-0.67
		c-5.88-4.21-12.53-6.35-19.77-6.35H51.92c-8.19,0-15.56,3.09-21.29,8.93c-5.69,5.79-8.69,13.21-8.69,21.47
		c0,7.3,2.42,13.97,7.04,19.45c-1.59,0.74-2.98,1.89-4.01,3.37c-1.86,2.69-2.3,6.11-1.16,9.18c1.9,5.12,4.78,9.53,8.6,13.17
		c0.17,0.17,0.33,0.34,0.5,0.5c0.17,0.17,0.33,0.34,0.5,0.5c0.17,0.17,0.33,0.34,0.5,0.5c0.17,0.17,0.33,0.34,0.5,0.5
		c0.17,0.17,0.33,0.34,0.5,0.5c0.17,0.17,0.33,0.34,0.5,0.5c0.17,0.17,0.33,0.34,0.5,0.5c0.17,0.17,0.33,0.34,0.5,0.5
		c0.17,0.17,0.33,0.34,0.5,0.5c0.17,0.17,0.33,0.34,0.5,0.5c0.17,0.17,0.33,0.34,0.5,0.5c0.17,0.17,0.33,0.34,0.5,0.5
		c0.17,0.17,0.33,0.34,0.5,0.5c0.17,0.17,0.33,0.34,0.5,0.5c0.17,0.17,0.33,0.34,0.5,0.5c0.17,0.17,0.33,0.34,0.5,0.5
		c0.17,0.17,0.33,0.34,0.5,0.5c0.17,0.17,0.33,0.34,0.5,0.5c0.17,0.17,0.33,0.34,0.5,0.5c1.35,1.34,2.81,2.6,4.4,3.74
		c5.87,4.21,12.45,6.35,19.56,6.35h52.66c2.51,0,4.93-0.31,7.27-0.91v5.26c0,2.89,1.23,5.48,3.19,7.31c0.16,0.17,0.33,0.34,0.5,0.5
		c0.16,0.17,0.33,0.34,0.5,0.5c0.16,0.17,0.33,0.34,0.5,0.5c0.16,0.17,0.33,0.34,0.5,0.5c0.16,0.17,0.33,0.34,0.5,0.5
		c0.16,0.17,0.33,0.34,0.5,0.5c0.16,0.17,0.33,0.34,0.5,0.5c0.16,0.17,0.33,0.34,0.5,0.5c0.16,0.17,0.33,0.34,0.5,0.5
		c0.16,0.17,0.33,0.34,0.5,0.5c0.16,0.17,0.33,0.34,0.5,0.5c0.16,0.17,0.33,0.34,0.5,0.5c0.16,0.17,0.33,0.34,0.5,0.5
		c0.16,0.17,0.33,0.34,0.5,0.5c0.16,0.17,0.33,0.34,0.5,0.5c0.16,0.17,0.33,0.34,0.5,0.5c0.16,0.17,0.33,0.34,0.5,0.5
		c0.16,0.17,0.33,0.34,0.5,0.5c0.16,0.17,0.33,0.34,0.5,0.5c1.83,1.96,4.42,3.19,7.31,3.19h13.65c1.1,1.89,2.47,3.64,4.13,5.23
		c0.05,0.04,0.1,0.08,0.14,0.13c0.12,0.12,0.23,0.25,0.36,0.37c0.05,0.04,0.1,0.08,0.14,0.13c0.12,0.12,0.23,0.25,0.36,0.37
		c0.05,0.04,0.1,0.08,0.14,0.13c0.12,0.12,0.23,0.25,0.36,0.37c0.05,0.04,0.1,0.08,0.14,0.13c0.12,0.12,0.23,0.25,0.36,0.37
		c0.05,0.04,0.1,0.08,0.14,0.13c0.12,0.12,0.23,0.25,0.36,0.37c0.05,0.04,0.1,0.08,0.14,0.13c0.12,0.12,0.23,0.25,0.36,0.37
		c0.05,0.04,0.1,0.08,0.14,0.13c0.12,0.12,0.23,0.25,0.36,0.37c0.05,0.04,0.1,0.08,0.14,0.13c0.12,0.12,0.23,0.25,0.36,0.37
		c0.05,0.04,0.1,0.08,0.14,0.13c0.12,0.12,0.23,0.25,0.36,0.37c0.05,0.04,0.1,0.08,0.14,0.13c0.12,0.12,0.23,0.25,0.36,0.37
		c0.05,0.04,0.1,0.08,0.14,0.13c0.12,0.12,0.23,0.25,0.36,0.37c0.05,0.04,0.1,0.08,0.14,0.13c0.12,0.12,0.23,0.25,0.36,0.37
		c0.05,0.04,0.1,0.08,0.14,0.13c0.12,0.12,0.23,0.25,0.36,0.37c0.05,0.04,0.1,0.08,0.14,0.13c0.12,0.12,0.23,0.25,0.36,0.37
		c0.05,0.04,0.1,0.08,0.14,0.13c0.12,0.12,0.23,0.25,0.36,0.37c0.05,0.04,0.1,0.08,0.14,0.13c0.12,0.12,0.23,0.25,0.36,0.37
		c0.05,0.04,0.1,0.08,0.14,0.13c0.12,0.12,0.23,0.25,0.36,0.37c0.05,0.04,0.1,0.08,0.14,0.13c0.12,0.12,0.23,0.25,0.36,0.37
		c0.05,0.04,0.1,0.08,0.14,0.13c0.12,0.12,0.23,0.25,0.36,0.37c0.05,0.04,0.1,0.08,0.14,0.13c0.12,0.12,0.23,0.25,0.36,0.37
		c4.58,4.39,10.41,6.72,16.83,6.72h28.19c0.12,0,0.24-0.01,0.36-0.02c0.32,0.4,0.67,0.78,1.04,1.13c0.16,0.17,0.33,0.34,0.5,0.5
		c0.16,0.17,0.33,0.34,0.5,0.5c0.16,0.17,0.33,0.34,0.5,0.5c0.16,0.17,0.33,0.34,0.5,0.5c0.16,0.17,0.33,0.34,0.5,0.5
		c0.16,0.17,0.33,0.34,0.5,0.5c0.16,0.17,0.33,0.34,0.5,0.5c0.16,0.17,0.33,0.34,0.5,0.5c0.16,0.17,0.33,0.34,0.5,0.5
		c0.16,0.17,0.33,0.34,0.5,0.5c0.16,0.17,0.33,0.34,0.5,0.5c0.16,0.17,0.33,0.34,0.5,0.5c0.16,0.17,0.33,0.34,0.5,0.5
		c0.16,0.17,0.33,0.34,0.5,0.5c0.16,0.17,0.33,0.34,0.5,0.5c0.16,0.17,0.33,0.34,0.5,0.5c0.16,0.17,0.33,0.34,0.5,0.5
		c0.16,0.17,0.33,0.34,0.5,0.5c0.16,0.17,0.33,0.34,0.5,0.5c1.83,1.96,4.42,3.19,7.31,3.19h8.93c5.52,0,10-4.48,10-10v-3.57h21.32
		c5.97,0,11.38-2.14,15.74-6.16c4.44,3.87,9.91,5.93,15.93,5.93h29c3.89,0,7.54-0.86,10.9-2.53c1.75,1.5,4.02,2.41,6.5,2.41h9.4
		c5.52,0,10-4.48,10-10v-3.96c0.35,0.46,0.73,0.88,1.15,1.27c0.16,0.17,0.33,0.34,0.5,0.5c0.16,0.17,0.33,0.34,0.5,0.5
		c0.16,0.17,0.33,0.34,0.5,0.5c0.16,0.17,0.33,0.34,0.5,0.5c0.16,0.17,0.33,0.34,0.5,0.5c0.16,0.17,0.33,0.34,0.5,0.5
		c0.16,0.17,0.33,0.34,0.5,0.5c0.16,0.17,0.33,0.34,0.5,0.5c0.16,0.17,0.33,0.34,0.5,0.5c0.16,0.17,0.33,0.34,0.5,0.5
		c0.16,0.17,0.33,0.34,0.5,0.5c0.16,0.17,0.33,0.34,0.5,0.5c0.16,0.17,0.33,0.34,0.5,0.5c0.16,0.17,0.33,0.34,0.5,0.5
		c0.16,0.17,0.33,0.34,0.5,0.5c0.16,0.17,0.33,0.34,0.5,0.5c0.16,0.17,0.33,0.34,0.5,0.5c0.16,0.17,0.33,0.34,0.5,0.5
		c0.16,0.17,0.33,0.34,0.5,0.5c1.83,1.96,4.42,3.19,7.31,3.19h9.4c5.52,0,10-4.48,10-10v-16.57c0.08-0.5,0.12-1.01,0.12-1.53
		c0-6.97-2.48-13.32-7.17-18.5h30.51c7.44,0,14.28-2.09,20.32-6.22c0.15-0.1,0.29-0.22,0.44-0.33c0.05,0.05,0.1,0.09,0.15,0.14
		c0.16,0.17,0.33,0.34,0.5,0.5c0.16,0.17,0.33,0.34,0.5,0.5c0.16,0.17,0.33,0.34,0.5,0.5c0.16,0.17,0.33,0.34,0.5,0.5
		c0.16,0.17,0.33,0.34,0.5,0.5c0.16,0.17,0.33,0.34,0.5,0.5c1.83,1.96,4.43,3.2,7.32,3.2h16.86c5.52,0,10-4.48,10-10v-38.92h20.17
		v28.92c0,2.89,1.23,5.48,3.19,7.31c0.16,0.17,0.33,0.34,0.5,0.5c0.16,0.17,0.33,0.34,0.5,0.5c0.16,0.17,0.33,0.34,0.5,0.5
		c0.16,0.17,0.33,0.34,0.5,0.5c0.16,0.17,0.33,0.34,0.5,0.5c0.16,0.17,0.33,0.34,0.5,0.5c0.16,0.17,0.33,0.34,0.5,0.5
		c0.16,0.17,0.33,0.34,0.5,0.5c0.16,0.17,0.33,0.34,0.5,0.5c0.16,0.17,0.33,0.34,0.5,0.5c0.16,0.17,0.33,0.34,0.5,0.5
		c0.16,0.17,0.33,0.34,0.5,0.5c0.16,0.17,0.33,0.34,0.5,0.5c0.16,0.17,0.33,0.34,0.5,0.5c0.16,0.17,0.33,0.34,0.5,0.5
		c0.16,0.17,0.33,0.34,0.5,0.5c0.16,0.17,0.33,0.34,0.5,0.5c0.16,0.17,0.33,0.34,0.5,0.5c0.16,0.17,0.33,0.34,0.5,0.5
		c1.83,1.96,4.42,3.19,7.31,3.19h16.86c5.52,0,10-4.48,10-10V201.7c0.14-0.66,0.21-1.34,0.21-2.03
		C560.67,188.01,556.32,177.89,547.74,169.58z"/>
	<g id="SpeenOpen_00000147213009602754343220000000752947380722159792_">
		<g>
			<path class="st1" d="M128.32,202.36c0,5.55-1.95,10.34-5.83,14.36c-3.89,4.03-8.53,6.04-13.95,6.04H55.88
				c-5,0-9.58-1.49-13.74-4.48c-4.16-2.98-7.15-6.9-8.95-11.76l74.94-0.21c2.77,0,4.16-1.32,4.16-3.96c0-2.77-1.39-4.16-4.16-4.16
				h-56.2c-5.55,0-10.27-1.98-14.15-5.93c-3.89-3.95-5.83-8.71-5.83-14.26c0-5.69,1.94-10.51,5.83-14.47
				c3.88-3.96,8.6-5.93,14.15-5.93h53.71c5.13,0,9.78,1.49,13.95,4.48c4.16,2.99,7.08,6.9,8.74,11.76H51.92
				c-2.64,0-3.96,1.39-3.96,4.16c0,2.64,1.32,3.96,3.96,3.96h56.62c5.41,0,10.06,2.01,13.95,6.04
				C126.37,192.02,128.32,196.81,128.32,202.36z"/>
			<path class="st1" d="M232.19,198.2c0,6.8-2.36,12.59-7.08,17.38c-4.72,4.79-10.41,7.18-17.07,7.18h-40.17
				c-5.69,0-11.03-1.46-16.03-4.37v28.73h-16.03v-89.51h72.23c6.66,0,12.35,2.39,17.07,7.18c4.72,4.79,7.08,10.51,7.08,17.17V198.2z
				 M216.16,198.2v-16.24c0-2.22-0.8-4.13-2.39-5.72c-1.6-1.59-3.51-2.39-5.72-2.39h-56.2v16.44c0,4.44,1.56,8.26,4.68,11.45
				c3.12,3.19,6.9,4.79,11.34,4.79h40.17c2.22,0,4.13-0.8,5.72-2.39C215.36,202.54,216.16,200.56,216.16,198.2z"/>
			<path class="st1" d="M340.63,206.11c-1.66,4.86-4.68,8.78-9.05,11.76c-4.37,2.99-9.26,4.48-14.68,4.48h-52.04
				c-6.94,0-12.87-2.36-17.8-7.08c-4.93-4.72-7.39-10.48-7.39-17.28v-16.24c0-6.66,2.46-12.35,7.39-17.07
				c4.92-4.72,10.86-7.08,17.8-7.08h54.75c5.83,0,10.79,1.98,14.88,5.93c4.09,3.96,6.14,8.71,6.14,14.26
				c0,5.55-2.05,10.3-6.14,14.26c-4.09,3.96-9.05,5.93-14.88,5.93h-63.07c0,2.22,0.8,4.13,2.39,5.72c1.59,1.6,3.57,2.39,5.93,2.39
				H340.63z M323.77,177.8c0-2.77-1.39-4.16-4.16-4.16h-54.75c-2.36,0-4.34,0.8-5.93,2.39c-1.6,1.6-2.39,3.51-2.39,5.72h63.07
				C322.38,181.75,323.77,180.43,323.77,177.8z"/>
			<path class="st1" d="M449.08,206.11c-1.66,4.86-4.68,8.78-9.05,11.76c-4.37,2.99-9.26,4.48-14.68,4.48h-52.04
				c-6.94,0-12.87-2.36-17.8-7.08c-4.93-4.72-7.39-10.48-7.39-17.28v-16.24c0-6.66,2.46-12.35,7.39-17.07
				c4.92-4.72,10.86-7.08,17.8-7.08h54.75c5.83,0,10.79,1.98,14.88,5.93c4.09,3.96,6.14,8.71,6.14,14.26
				c0,5.55-2.05,10.3-6.14,14.26c-4.09,3.96-9.05,5.93-14.88,5.93h-63.07c0,2.22,0.8,4.13,2.39,5.72c1.59,1.6,3.57,2.39,5.93,2.39
				H449.08z M432.22,177.8c0-2.77-1.39-4.16-4.16-4.16h-54.75c-2.36,0-4.34,0.8-5.93,2.39c-1.6,1.6-2.39,3.51-2.39,5.72h63.07
				C430.83,181.75,432.22,180.43,432.22,177.8z"/>
			<path class="st1" d="M540.67,189.66h-0.21v32.47H523.6v-32.47h0.21c0-4.44-1.63-8.25-4.89-11.45c-3.26-3.19-7.25-4.79-11.97-4.79
				v-0.21h-33.51v48.92h-16.86v-65.15h50.38v0.21c9.29,0,17.24,3.19,23.83,9.58C537.37,173.15,540.67,180.78,540.67,189.66z"/>
		</g>
		<g>
			<path class="st1" d="M208.61,232.98h-28.19c-3.94,0-7.27,1.32-9.98,3.94c-2.71,2.63-4.06,5.8-4.06,9.51v9.05
				c0,3.79,1.37,7,4.12,9.63c2.74,2.63,6.05,3.94,9.92,3.94h28.19c3.87,0,7.17-1.31,9.92-3.94c2.74-2.63,4.12-5.84,4.12-9.63v-9.05
				c0-3.71-1.35-6.88-4.06-9.51C215.88,234.3,212.55,232.98,208.61,232.98z M213.25,255.49c0,1.24-0.45,2.3-1.33,3.19
				c-0.89,0.89-1.99,1.33-3.31,1.33h-28.19c-1.32,0-2.42-0.44-3.31-1.33c-0.89-0.89-1.33-1.95-1.33-3.19v-9.05
				c0-1.24,0.44-2.3,1.33-3.19c0.89-0.89,1.99-1.33,3.31-1.33h28.19c1.31,0,2.42,0.45,3.31,1.33c0.89,0.89,1.33,1.95,1.33,3.19
				V255.49z"/>
			<path class="st1" d="M267.08,232.98h-40.25v49.88h8.93v-16.01c2.78,1.62,5.76,2.44,8.93,2.44h22.39c3.71,0,6.88-1.33,9.51-4
				c2.63-2.67,3.94-5.9,3.94-9.69v-9.05c0-3.71-1.32-6.9-3.94-9.57C273.96,234.32,270.79,232.98,267.08,232.98z M271.6,255.6
				c0,1.32-0.45,2.42-1.33,3.31c-0.89,0.89-1.95,1.33-3.19,1.33h-22.39c-2.48,0-4.58-0.89-6.32-2.67c-1.74-1.78-2.61-3.9-2.61-6.38
				v-9.16h31.32c1.24,0,2.3,0.45,3.19,1.33c0.89,0.89,1.33,1.95,1.33,3.19V255.6z"/>
			<path class="st1" d="M337.55,252.18c2.28-2.2,3.42-4.85,3.42-7.95c0-3.09-1.14-5.74-3.42-7.95c-2.28-2.2-5.05-3.31-8.29-3.31
				h-30.51c-3.87,0-7.17,1.32-9.92,3.94c-2.75,2.63-4.12,5.8-4.12,9.51v9.05c0,3.79,1.37,7,4.12,9.63c2.74,2.63,6.05,3.94,9.92,3.94
				h29c3.02,0,5.74-0.83,8.18-2.49c2.44-1.66,4.12-3.85,5.05-6.55h-42.23c-1.32,0-2.42-0.44-3.31-1.33
				c-0.89-0.89-1.33-1.95-1.33-3.19h35.15C332.51,255.49,335.27,254.39,337.55,252.18z M295.44,243.25
				c0.89-0.89,1.99-1.33,3.31-1.33h30.51c1.55,0,2.32,0.77,2.32,2.32c0,1.47-0.77,2.2-2.32,2.2h-35.15
				C294.11,245.2,294.55,244.14,295.44,243.25z"/>
			<path class="st1" d="M386.51,238.09c-3.67-3.56-8.1-5.34-13.28-5.34v-0.12h-28.07v36.31h9.4v-27.26h18.68v0.12
				c2.63,0,4.85,0.89,6.67,2.67c1.82,1.78,2.73,3.91,2.73,6.38h-0.12v18.1h9.4v-18.1h0.12C392.02,245.9,390.18,241.64,386.51,238.09
				z"/>
		</g>
	</g>
	<g id="SummerTag_00000145749326681376034390000014584531039596955811_">
		<path class="st2" d="M554.21,246.45c-0.16-0.17-0.33-0.34-0.5-0.5c-0.16-0.17-0.33-0.34-0.5-0.5c-0.16-0.17-0.33-0.34-0.5-0.5
			c-0.16-0.17-0.33-0.34-0.5-0.5c-0.16-0.17-0.33-0.34-0.5-0.5c-0.16-0.17-0.33-0.34-0.5-0.5c-0.16-0.17-0.33-0.34-0.5-0.5
			c-0.16-0.17-0.33-0.34-0.5-0.5c-0.16-0.17-0.33-0.34-0.5-0.5c-0.16-0.17-0.33-0.34-0.5-0.5c-0.16-0.17-0.33-0.34-0.5-0.5
			c-0.16-0.17-0.33-0.34-0.5-0.5c-0.16-0.17-0.33-0.34-0.5-0.5c-0.16-0.17-0.33-0.34-0.5-0.5c-0.16-0.17-0.33-0.34-0.5-0.5
			c-0.16-0.17-0.33-0.34-0.5-0.5c-0.16-0.17-0.33-0.34-0.5-0.5c-0.16-0.17-0.33-0.34-0.5-0.5c-0.16-0.17-0.33-0.34-0.5-0.5
			c-1.49-1.63-3.63-2.65-6.01-2.65H410.54c-4.51,0-8.16,3.65-8.16,8.16v20.45c0,2.38,1.03,4.52,2.65,6.01
			c0.16,0.17,0.33,0.34,0.5,0.5c0.16,0.17,0.33,0.34,0.5,0.5c0.16,0.17,0.33,0.34,0.5,0.5c0.16,0.17,0.33,0.34,0.5,0.5
			c0.16,0.17,0.33,0.34,0.5,0.5c0.16,0.17,0.33,0.34,0.5,0.5c0.16,0.17,0.33,0.34,0.5,0.5c0.16,0.17,0.33,0.34,0.5,0.5
			c0.16,0.17,0.33,0.34,0.5,0.5c0.16,0.17,0.33,0.34,0.5,0.5c0.16,0.17,0.33,0.34,0.5,0.5c0.16,0.17,0.33,0.34,0.5,0.5
			c0.16,0.17,0.33,0.34,0.5,0.5c0.16,0.17,0.33,0.34,0.5,0.5c0.16,0.17,0.33,0.34,0.5,0.5c0.16,0.17,0.33,0.34,0.5,0.5
			c0.16,0.17,0.33,0.34,0.5,0.5c0.16,0.17,0.33,0.34,0.5,0.5c0.16,0.17,0.33,0.34,0.5,0.5c1.49,1.63,3.63,2.65,6.01,2.65H548.7
			c4.51,0,8.16-3.65,8.16-8.16v-20.45C556.86,250.07,555.83,247.94,554.21,246.45z"/>
		<text transform="matrix(1 0 0 1 423.997 256.1063)"><tspan x="0" y="0" class="st0 st3 st4">winter</tspan><tspan x="13.89" y="13" class="st0 st3 st5">2024</tspan></text>
	</g>
	<g id="Star_00000075152461388234328490000010384161971367734973_">
		<g>
			<g>
				<path class="st1" d="M54.8,335.76c-2.56,0-4.64-2.08-4.65-4.64c-0.06-21.69-0.09-33.64-4.73-38.28
					c-4.64-4.64-16.59-4.67-38.28-4.73c-2.56-0.01-4.64-2.09-4.64-4.65s2.08-4.64,4.64-4.65c21.69-0.06,33.64-0.09,38.28-4.73
					c2.66-2.66,3.94-7.73,4.42-17.49l0.13-2.67l2.65,0.31c1.87,0.22,3.55,0.46,5.13,0.75l1.94,0.35l0.11,1.97
					c0.5,9.31,1.77,14.17,4.38,16.78c2.31,2.31,6.37,3.56,13.57,4.16l2.01,0.17l0.26,2c0.22,1.69,0.41,3.55,0.57,5.53l0.2,2.5
					l-2.5,0.19c-7.53,0.59-11.75,1.85-14.11,4.21c-4.64,4.64-4.67,16.59-4.73,38.28C59.44,333.68,57.35,335.76,54.8,335.76z"/>
				<path class="st0" d="M52.33,256.71c1.77,0.2,3.43,0.44,4.97,0.72c0.51,9.36,1.78,15.08,5.11,18.41
					c2.92,2.92,7.68,4.26,15.13,4.89c0.22,1.69,0.4,3.49,0.56,5.41c-7.77,0.61-12.69,1.94-15.69,4.93
					c-5.37,5.37-5.4,16.96-5.47,40.04c0,1.18-0.97,2.14-2.15,2.14c-1.18,0-2.15-0.96-2.15-2.14c-0.06-23.08-0.1-34.67-5.47-40.04
					c-5.37-5.37-16.96-5.4-40.04-5.47c-1.18,0-2.14-0.97-2.14-2.15c0-1.18,0.96-2.15,2.14-2.15c23.08-0.06,34.67-0.1,40.04-5.47
					C50.6,272.44,51.85,266.5,52.33,256.71 M47.6,251.14l-0.26,5.33c-0.44,8.96-1.54,13.7-3.69,15.85c-3.91,3.91-16.18,3.95-36.52,4
					C3.2,276.33,0,279.53,0,283.46c0,3.93,3.2,7.14,7.13,7.15c20.33,0.06,32.61,0.09,36.52,4c3.91,3.91,3.95,16.18,4,36.52
					c0.01,3.93,3.22,7.13,7.15,7.13c3.93,0,7.14-3.2,7.15-7.13c0.06-20.33,0.09-32.61,4-36.52c1.88-1.88,5.75-2.95,12.54-3.48
					l4.99-0.39l-0.4-4.99c-0.16-2.02-0.36-3.93-0.58-5.66l-0.52-4l-4.02-0.34c-6.48-0.55-10.18-1.61-12.01-3.44
					c-2.1-2.1-3.19-6.63-3.65-15.15l-0.21-3.94l-3.88-0.71c-1.62-0.3-3.4-0.56-5.3-0.77L47.6,251.14L47.6,251.14z"/>
			</g>
			<g>
				<path class="st1" d="M50.11,244.86c0.02-2.81,0.03-5.82,0.04-9.06c0.01-2.56,2.09-4.64,4.65-4.64c2.56,0,4.64,2.08,4.65,4.64
					c0.01,3,0.02,5.8,0.04,8.43l0.02,2.11l-2.08,0.37c-1.41,0.25-2.93,0.47-4.52,0.66l-2.82,0.33L50.11,244.86z"/>
				<path class="st0" d="M54.8,233.67c1.18,0,2.15,0.96,2.15,2.14c0.01,3.01,0.02,5.81,0.04,8.44c-1.37,0.24-2.82,0.45-4.37,0.64
					c0.02-2.81,0.03-5.82,0.04-9.07C52.65,234.63,53.62,233.67,54.8,233.67 M54.8,228.67c-3.93,0-7.14,3.2-7.15,7.13
					c-0.01,3.24-0.02,6.25-0.04,9.05l-0.05,5.67l5.63-0.66c1.63-0.19,3.2-0.42,4.66-0.68l4.16-0.74l-0.03-4.22
					c-0.02-2.62-0.03-5.42-0.04-8.42C61.94,231.86,58.73,228.67,54.8,228.67L54.8,228.67z"/>
			</g>
			<g>
				<path class="st1" d="M86.66,285.5c0.14-1.63,0.29-3.17,0.47-4.57l0.28-2.22l2.24,0.03c3.85,0.06,8.2,0.07,12.82,0.08
					c2.56,0.01,4.64,2.09,4.64,4.65s-2.08,4.64-4.64,4.65c-4.79,0.01-9.31,0.03-13.27,0.09l-2.76,0.04L86.66,285.5z"/>
				<path class="st0" d="M89.61,281.23c3.83,0.06,8.09,0.07,12.85,0.08c1.18,0,2.14,0.97,2.14,2.15c0,1.18-0.96,2.15-2.14,2.15
					c-4.95,0.01-9.36,0.03-13.3,0.09C89.28,284.13,89.43,282.64,89.61,281.23 M85.2,276.17l-0.55,4.45
					c-0.18,1.44-0.34,3.01-0.48,4.67l-0.46,5.5l5.52-0.09c3.94-0.06,8.45-0.08,13.23-0.09c3.93-0.01,7.13-3.22,7.13-7.15
					c0-3.93-3.2-7.14-7.13-7.15c-4.59-0.01-8.93-0.02-12.78-0.08L85.2,276.17L85.2,276.17z"/>
			</g>
			<g>
				<path class="st1" d="M83.61,328.43c-2.74,0-4.98-2.23-4.99-4.98c-0.1-34.71-0.15-52.14-7.83-59.82
					c-7.68-7.68-25.11-7.73-59.82-7.83c-2.75-0.01-4.98-2.24-4.98-4.99c0-2.74,2.23-4.98,4.98-4.99c34.71-0.1,52.14-0.15,59.82-7.83
					c7.55-7.55,7.74-78.02,7.82-108.11l0-1.71c0.01-2.74,2.25-4.98,4.99-4.98c2.75,0,4.98,2.23,4.99,4.98l0,1.71
					c0.08,30.09,0.27,100.56,7.82,108.11c7.58,7.58,65.44,7.74,96.52,7.83l1.3,0c2.74,0.01,4.98,2.25,4.98,4.99
					c0,2.75-2.23,4.98-4.98,4.99l-1.32,0c-31.08,0.09-88.92,0.25-96.5,7.83c-7.68,7.68-7.73,25.11-7.83,59.82
					C88.59,326.2,86.35,328.43,83.61,328.43z"/>
				<path class="st0" d="M83.61,125.69c1.37,0,2.49,1.11,2.49,2.48c0.1,35.4,0.15,103.17,8.56,111.58
					c8.41,8.41,64.18,8.46,99.58,8.56c1.37,0,2.48,1.12,2.48,2.49c0,1.37-1.11,2.49-2.48,2.49c-35.4,0.1-91.17,0.15-99.58,8.56
					c-8.41,8.41-8.46,26.18-8.56,61.58c0,1.37-1.12,2.48-2.49,2.48c-1.37,0-2.49-1.11-2.49-2.48c-0.1-35.4-0.15-53.17-8.56-61.58
					c-8.41-8.41-26.18-8.46-61.58-8.56c-1.37,0-2.48-1.12-2.48-2.49c0-1.37,1.11-2.49,2.48-2.49c35.4-0.1,53.17-0.15,61.58-8.56
					c8.41-8.41,8.46-76.18,8.56-111.58C81.12,126.81,82.24,125.69,83.61,125.69 M83.61,120.69c-4.12,0-7.48,3.35-7.49,7.47l0,1.71
					c-0.05,18.1-0.12,42.88-1.18,64.63c-1.74,35.45-5.23,40.98-5.92,41.73c-6.94,6.94-25.1,7-58.05,7.09
					c-4.12,0.01-7.47,3.37-7.47,7.49c0,4.12,3.35,7.48,7.47,7.49c32.95,0.09,51.11,0.14,58.06,7.1c6.95,6.95,7.01,25.11,7.1,58.06
					c0.01,4.12,3.37,7.47,7.49,7.47s7.48-3.35,7.49-7.47c0.09-32.95,0.14-51.11,7.1-58.06c0.68-0.68,5.62-4.19,35.71-5.9
					c18.96-1.08,41.19-1.14,59.04-1.19l1.31,0c4.12-0.01,7.47-3.37,7.47-7.49c0-4.12-3.35-7.48-7.47-7.49l-1.31,0
					c-17.86-0.05-40.08-0.11-59.05-1.19c-30.09-1.71-35.03-5.22-35.71-5.9c-0.67-0.74-4.17-6.28-5.91-41.72
					c-1.07-21.75-1.13-46.53-1.18-64.63l0-1.71C91.09,124.04,87.73,120.69,83.61,120.69L83.61,120.69z"/>
			</g>
		</g>
	</g>
	<g id="SpinShare_00000038389018997714184840000003014431977157262233_">
		<g>
			<path class="st0" d="M117.09,126.66c-0.8,0-1.52,0.31-2.07,0.81v-0.94c0-1.7-1.39-3.09-3.09-3.09c-0.8,0-1.52,0.31-2.07,0.81
				v-0.94c0-1.7-1.39-3.09-3.09-3.09s-3.09,1.39-3.09,3.09v0.94c-0.55-0.5-1.27-0.81-2.07-0.81c-1.7,0-3.09,1.39-3.09,3.09v0.94
				c-0.55-0.5-1.27-0.81-2.07-0.81c-1.7,0-3.09,1.39-3.09,3.09v10.32c0,1.7,1.39,3.09,3.09,3.09c0.8,0,1.52-0.31,2.07-0.81v0.94
				c0,1.7,1.39,3.09,3.09,3.09c0.8,0,1.52-0.31,2.07-0.81v0.94c0,1.7,1.39,3.09,3.09,3.09s3.09-1.39,3.09-3.09v-0.94
				c0.55,0.5,1.27,0.81,2.07,0.81c1.7,0,3.09-1.39,3.09-3.09v-0.94c0.55,0.5,1.27,0.81,2.07,0.81c1.7,0,3.09-1.39,3.09-3.09v-10.32
				C120.18,128.05,118.79,126.66,117.09,126.66z"/>
			<path class="st0" d="M203.84,135.95c0-3.53-2.73-6.29-6.22-6.29c-1.19,0-2.3,0.34-3.25,0.91c-0.58-0.54-1.37-0.87-2.24-0.87
				c-0.63,0-1.18,0.18-1.64,0.42c-0.46-0.25-0.98-0.38-1.53-0.38c-0.71,0-1.4,0.27-1.96,0.73c-0.54-0.45-1.23-0.73-1.99-0.73
				c-0.55,0-1.06,0.14-1.52,0.4c-0.57-0.28-1.25-0.47-2.1-0.47c-1.47,0-2.91,0.63-4.05,1.77c-0.05,0.05-0.1,0.11-0.15,0.17
				c-0.14-0.18-0.3-0.36-0.48-0.53c-1.07-1.01-2.64-1.52-4.26-1.33v-0.72c0-1.85-1.38-3.3-3.15-3.3c-1.31,0-2.38,0.76-2.87,1.9
				c-0.91-0.63-2.24-0.99-3.85-0.99c-2.85,0-5.14,1.59-5.92,3.9c-0.83-0.54-1.84-0.84-2.95-0.84c-0.81,0-1.53,0.14-2.18,0.44
				c-0.45-0.26-0.96-0.4-1.5-0.4l-0.15,0c-0.28,0.01-0.53,0.07-0.78,0.14c0.06-0.25,0.1-0.51,0.1-0.79c0-1.86-1.5-3.37-3.34-3.37
				c-1.86,0-3.37,1.51-3.37,3.37c0,0.78,0.26,1.49,0.71,2.07c-1.01-0.96-2.3-1.46-3.84-1.46c-0.7,0-1.36,0.15-1.97,0.44
				c-0.53-0.31-1.09-0.4-1.57-0.4c-0.52,0-1,0.14-1.41,0.36c-0.04-2.11-2.08-3.46-5.23-3.46c-3.55,0-6.22,2.45-6.22,5.71
				c0,1.98,0.85,3.17,1.87,3.92c-1.12,0.45-1.94,1.57-1.94,2.84c0,1.32,0.75,2.48,2.04,3.12c1.15,0.55,2.5,0.83,3.99,0.83
				c1.44,0,2.78-0.38,3.82-1.06v1.23c0,1.85,1.38,3.3,3.15,3.3c1.8,0,3.15-1.42,3.15-3.3v-0.32c0.09,0,0.19,0.01,0.28,0.01
				c1.6,0,2.89-0.6,3.86-1.54c0.56,0.91,1.52,1.5,2.64,1.5c0.82,0,1.54-0.31,2.09-0.82c0.55,0.51,1.27,0.82,2.07,0.82
				c1.29,0,2.36-0.74,2.85-1.87c0.5,1.12,1.58,1.87,2.84,1.87c0.88,0,1.64-0.34,2.2-0.91c0.14,0.09,0.29,0.18,0.45,0.26
				c1.15,0.55,2.5,0.83,3.99,0.83c1.75,0,3.33-0.55,4.44-1.53c0.57,0.81,1.48,1.34,2.53,1.34c1.31,0,2.38-0.76,2.87-1.91
				c0.5,1.14,1.58,1.91,2.86,1.91c1.11,0,2.04-0.55,2.6-1.41c1.1,0.93,2.45,1.45,3.79,1.45c0.83,0,1.49-0.17,2.04-0.45
				c0.45,0.26,0.96,0.41,1.51,0.41c0.79,0,1.48-0.29,2.02-0.75c0.54,0.47,1.23,0.75,2,0.75c1.71,0,3-1.3,3.13-3.06
				c0.15,0.25,0.32,0.5,0.51,0.74c1.26,1.5,3.15,2.36,5.18,2.36c1.46,0,2.76-0.34,3.89-1c1.27-0.7,2.01-1.76,2.01-2.92
				c0-0.44-0.11-0.87-0.31-1.26C203.68,137.25,203.84,136.65,203.84,135.95z"/>
		</g>
		<g>
			<path class="st1" d="M108.05,146.53V123.3c0-0.71-0.58-1.29-1.29-1.29s-1.29,0.58-1.29,1.29v23.23c0,0.71,0.58,1.29,1.29,1.29
				S108.05,147.24,108.05,146.53z"/>
			<path class="st1" d="M111.93,125.24c-0.71,0-1.29,0.58-1.29,1.29v16.77c0,0.71,0.58,1.29,1.29,1.29s1.29-0.58,1.29-1.29v-16.77
				C113.22,125.82,112.64,125.24,111.93,125.24z"/>
			<path class="st1" d="M117.09,128.47c-0.71,0-1.29,0.58-1.29,1.29v10.32c0,0.71,0.58,1.29,1.29,1.29s1.29-0.58,1.29-1.29v-10.32
				C118.38,129.04,117.8,128.47,117.09,128.47z"/>
			<path class="st1" d="M96.44,141.37c0.71,0,1.29-0.58,1.29-1.29v-10.32c0-0.71-0.58-1.29-1.29-1.29c-0.71,0-1.29,0.58-1.29,1.29
				v10.32C95.15,140.79,95.73,141.37,96.44,141.37z"/>
			<path class="st1" d="M101.6,125.24c-0.71,0-1.29,0.58-1.29,1.29v16.77c0,0.71,0.58,1.29,1.29,1.29c0.71,0,1.29-0.58,1.29-1.29
				v-16.77C102.89,125.82,102.32,125.24,101.6,125.24z"/>
		</g>
		<g>
			<path class="st1" d="M132.42,139.93c-0.88,0.95-2.26,1.31-3.51,1.31c-1.1,0-2.23-0.18-3.21-0.66c-0.58-0.29-1.02-0.8-1.02-1.5
				c0-0.62,0.55-1.24,1.21-1.24c0.26,0,0.47,0.04,0.69,0.11l0.99,0.37c0.4,0.18,0.88,0.29,1.35,0.29c0.73,0,1.53-0.44,1.53-1.28
				c0-0.37-0.15-0.69-0.44-0.88c-0.58-0.37-1.31-0.55-1.97-0.73c-1.86-0.55-3.29-1.17-3.29-3.4c0-2.45,2.15-3.91,4.42-3.91
				c1.1,0,3.43,0.29,3.43,1.72c0,0.77-0.55,1.39-1.28,1.39c-0.15,0-0.29-0.04-0.44-0.07l-0.51-0.18c-0.4-0.15-0.84-0.22-1.24-0.22
				c-0.62,0-1.39,0.29-1.39,0.99c0,0.62,0.62,0.91,1.13,1.06l0.73,0.18c1.97,0.55,3.83,1.39,3.83,3.65
				C133.44,137.99,133.15,139.13,132.42,139.93z"/>
			<path class="st1" d="M139.32,141.1c-0.84,0-1.46-0.29-2.08-0.8v2.92c0,0.8-0.47,1.5-1.35,1.5c-0.84,0-1.35-0.69-1.35-1.5v-10.08
				c0-0.8,0.37-1.61,1.28-1.61c0.73,0,1.06,0.4,1.31,1.02c0.58-0.66,1.31-1.06,2.23-1.06c1.02,0,1.94,0.29,2.67,1.02
				c0.95,0.91,1.46,2.26,1.46,3.58C143.48,138.58,142.06,141.1,139.32,141.1z M139.07,133.98c-1.28,0-1.94,1.17-1.94,2.3
				s0.66,2.34,1.94,2.34c1.13,0,1.75-1.28,1.75-2.34C140.82,135.26,140.2,133.98,139.07,133.98z"/>
			<path class="st1" d="M145.86,130.65c-0.88,0-1.57-0.73-1.57-1.57s0.69-1.57,1.57-1.57c0.84,0,1.53,0.73,1.53,1.57
				S146.7,130.65,145.86,130.65z M145.82,141.06c-0.84,0-1.35-0.73-1.35-1.53v-6.5c0-0.8,0.47-1.5,1.35-1.5
				c0.84,0,1.35,0.69,1.35,1.5v6.5C147.17,140.37,146.7,141.06,145.82,141.06z"/>
			<path class="st1" d="M155.68,141.06c-0.84,0-1.35-0.73-1.35-1.53v-4.05c0-0.91-0.51-1.68-1.53-1.68c-0.84,0-1.46,0.77-1.46,1.57
				v4.16c0,0.84-0.47,1.53-1.35,1.53c-0.84,0-1.35-0.73-1.35-1.53v-6.43c0-0.8,0.44-1.53,1.31-1.57h0.07c0.58,0,1.02,0.4,1.24,0.95
				c0.73-0.69,1.42-0.99,2.45-0.99c0.84,0,1.68,0.22,2.34,0.8c0.8,0.69,0.99,1.53,0.99,2.56v4.67
				C157.03,140.37,156.56,141.06,155.68,141.06z"/>
			<path class="st1" d="M165.83,139.93c-0.88,0.95-2.26,1.31-3.51,1.31c-1.1,0-2.23-0.18-3.21-0.66c-0.58-0.29-1.02-0.8-1.02-1.5
				c0-0.62,0.55-1.24,1.21-1.24c0.26,0,0.47,0.04,0.69,0.11l0.99,0.37c0.4,0.18,0.88,0.29,1.35,0.29c0.73,0,1.53-0.44,1.53-1.28
				c0-0.37-0.15-0.69-0.44-0.88c-0.58-0.37-1.31-0.55-1.97-0.73c-1.86-0.55-3.29-1.17-3.29-3.4c0-2.45,2.15-3.91,4.42-3.91
				c1.1,0,3.43,0.29,3.43,1.72c0,0.77-0.55,1.39-1.28,1.39c-0.15,0-0.29-0.04-0.44-0.07l-0.51-0.18c-0.4-0.15-0.84-0.22-1.24-0.22
				c-0.62,0-1.39,0.29-1.39,0.99c0,0.62,0.62,0.91,1.13,1.06l0.73,0.18c1.97,0.55,3.83,1.39,3.83,3.65
				C166.85,137.99,166.56,139.13,165.83,139.93z"/>
			<path class="st1" d="M175.03,141.06c-0.84,0-1.35-0.73-1.35-1.53v-3.91c0-0.95-0.4-1.83-1.53-1.83c-0.88,0-1.5,0.8-1.5,1.64v4.09
				c0,0.84-0.47,1.53-1.35,1.53c-0.84,0-1.35-0.73-1.35-1.53v-10.52c0-0.8,0.47-1.5,1.35-1.5c0.84,0,1.35,0.69,1.35,1.5v3.25
				c0.73-0.44,1.53-0.77,2.41-0.77c0.88,0,1.75,0.26,2.41,0.88c0.73,0.69,0.91,1.53,0.91,2.52v4.64
				C176.38,140.37,175.91,141.06,175.03,141.06z"/>
			<path class="st1" d="M184.97,141.06c-0.66,0-1.1-0.51-1.28-1.1c-0.66,0.77-1.24,1.13-2.26,1.13c-0.95,0-1.9-0.4-2.63-1.02
				c-1.1-0.99-1.57-2.37-1.57-3.8c0-1.39,0.4-2.59,1.39-3.58c0.73-0.73,1.72-1.24,2.78-1.24c0.99,0,1.61,0.37,2.3,1.06
				c0.26-0.55,0.66-0.99,1.31-0.99c0.77,0,1.35,0.62,1.35,1.39v6.54C186.35,140.29,185.84,141.06,184.97,141.06z M181.68,133.98
				c-1.21,0-1.79,1.21-1.79,2.26c0,1.1,0.51,2.34,1.79,2.34c1.24,0,1.94-1.1,1.94-2.23C183.61,135.11,183.07,133.98,181.68,133.98z"
				/>
			<path class="st1" d="M192.16,134.09c-0.47,0.18-0.99,0.37-1.42,0.69c-0.33,0.26-0.4,0.66-0.4,1.1v3.65
				c0,0.84-0.47,1.53-1.35,1.53c-0.84,0-1.35-0.73-1.35-1.53v-6.46c0-0.37,0.07-0.77,0.33-1.06c0.26-0.29,0.62-0.47,0.99-0.47
				c0.66,0,1.1,0.37,1.39,0.95c0.47-0.47,1.06-0.99,1.79-0.99c0.77,0,1.42,0.55,1.42,1.28
				C193.55,133.65,192.85,133.87,192.16,134.09z"/>
			<path class="st1" d="M200.87,137.15h-5c0.18,0.47,0.4,0.88,0.8,1.17c0.37,0.29,0.8,0.44,1.28,0.44c0.51,0,1.02-0.15,1.5-0.37
				l0.77-0.4c0.15-0.07,0.33-0.11,0.51-0.11h0.04c0.58,0,1.13,0.55,1.13,1.1c0,0.62-0.62,1.1-1.1,1.35
				c-0.91,0.55-1.94,0.77-2.99,0.77c-1.46,0-2.85-0.58-3.8-1.72c-0.77-0.95-1.02-1.97-1.02-3.14c0-2.59,2.01-4.78,4.64-4.78
				c2.52,0,4.42,2.05,4.42,4.49C202.04,136.79,201.71,137.15,200.87,137.15z M197.58,133.65c-1.02,0-1.5,0.8-1.79,1.68h3.62
				C199.15,134.42,198.68,133.65,197.58,133.65z"/>
		</g>
	</g>
</g>
</svg>
