<?xml version="1.0" encoding="UTF-8" standalone="no"?>
<!DOCTYPE svg PUBLIC "-//W3C//DTD SVG 1.1//EN" "http://www.w3.org/Graphics/SVG/1.1/DTD/svg11.dtd">
<svg width="100%" height="100%" viewBox="0 0 2337 1748" version="1.1" xmlns="http://www.w3.org/2000/svg" xmlns:xlink="http://www.w3.org/1999/xlink" xml:space="preserve" xmlns:serif="http://www.serif.com/" style="fill-rule:evenodd;clip-rule:evenodd;stroke-miterlimit:10;">
    <g id="Ebene-1" serif:id="Ebene 1" transform="matrix(4.16667,0,0,4.16667,0,1.13687e-13)">
        <g transform="matrix(1,0,0,1,272.575,131.57)">
            <path d="M0,160.94C64.686,176.465 134.932,180.833 198.837,161.695C212.732,157.126 227.539,150.807 237.191,139.926C239.944,136.722 241.733,133.345 242.778,130.013C244.075,126.7 244.684,123.361 244.24,119.811C242.094,106.254 230.329,95.337 219.867,86.636C184.764,59.507 142.394,42.196 100.483,28.121C25.692,4.722 -53.481,-10.722 -132.052,-5.02C-152.019,-3.038 -186.535,1.127 -198.081,18.195C-199.648,20.747 -200.239,23.396 -200.447,26.357C-200.959,29.195 -201.027,32.485 -200.162,36.217C-196.781,49.663 -186.721,61.652 -176.865,71.628C-129.014,117.489 -64.166,145.54 0,160.94M-1.348,166.724C-57.176,153.925 -112.951,137.695 -163.737,110.479C-190.227,95.459 -219.186,76.091 -230.749,45.782C-243.247,11.411 -219.482,-15.066 -186.797,-22.57C-168.916,-26.991 -150.26,-27.335 -132.39,-26.476C-97.733,-24.59 -63.834,-18.011 -30.003,-11.058C36.773,3.538 103.437,18.813 168.253,40.736C199.966,52.243 239.09,67.533 259.896,95.472C274.22,115.276 273.536,139.911 255.369,157.234C241.35,170.952 221.956,177.412 204.001,181.282C169.546,188.275 134.454,186.933 99.815,183.532C65.754,180.11 31.966,174.362 -1.348,166.724" style="fill:rgb(17,17,17);fill-rule:nonzero;"/>
        </g>
        <g transform="matrix(1,0,0,1,249.28,135.528)">
            <path d="M0,147.343C56.277,182.813 121.403,209.502 188.069,211.893C202.696,212.027 218.747,210.797 231.382,203.59C235.017,201.44 237.796,198.816 239.855,195.996C242.147,193.274 243.796,190.308 244.516,186.803C246.834,173.275 239.198,159.158 232.083,147.56C207.548,110.597 172.979,80.6 137.805,53.814C74.485,7.643 4.461,-32.402 -71.781,-52.226C-91.327,-56.759 -125.354,-63.896 -141.768,-51.438C-144.072,-49.524 -145.482,-47.206 -146.629,-44.468C-148.025,-41.945 -149.146,-38.85 -149.524,-35.039C-150.639,-21.219 -144.96,-6.636 -138.829,5.977C-108.235,64.773 -55.825,112.158 0,147.343M-3.133,152.389C-51.897,122.344 -99.509,89.067 -138.869,46.987C-159.135,24.257 -180.342,-3.383 -181.563,-35.8C-182.521,-67.402 -157.933,-86.512 -127.906,-86.753C-77.558,-86.967 -16.304,-49.942 26.805,-25.183C85.36,10.079 143.59,45.948 197.937,87.518C224.305,108.629 256.391,135.599 267.156,168.779C274.364,192.133 265.808,215.245 243.041,225.818C225.36,234.31 204.918,234.2 186.671,232.102C151.796,227.663 118.992,215.126 87.278,200.784C56.119,186.609 25.965,170.317 -3.133,152.389" style="fill:rgb(17,17,17);fill-rule:nonzero;"/>
        </g>
        <g transform="matrix(1,0,0,1,230.243,147.87)">
            <path d="M0,118.309C41.837,170.029 94.881,216.289 157.217,240.045C171.02,244.887 186.61,248.897 200.894,246.148C205.028,245.285 208.505,243.697 211.363,241.691C214.411,239.854 216.927,237.577 218.739,234.492C225.295,222.434 222.618,206.609 219.621,193.336C208.313,150.437 185.26,110.896 160.6,74.201C115.546,10.081 62.171,-50.4 -3.609,-93.746C-20.697,-104.354 -50.496,-122.052 -70.114,-115.564C-72.911,-114.494 -74.993,-112.754 -76.962,-110.533C-79.096,-108.594 -81.155,-106.026 -82.743,-102.54C-88.253,-89.818 -87.579,-74.182 -85.842,-60.266C-75.836,5.254 -41.501,67.005 0,118.309M-4.593,122.075C-41.067,77.913 -75.408,31.064 -99.1,-21.459C-110.956,-49.509 -122.121,-82.51 -112.825,-113.59C-101.797,-148.46 -66.82,-154.977 -36.33,-141.016C-19.457,-133.628 -4.453,-122.535 9.195,-110.967C35.528,-88.357 58.402,-62.487 80.994,-36.363C125.055,15.893 168.613,68.62 206.656,125.492C224.809,153.976 246.488,189.85 245.981,224.729C245.275,249.16 229.724,268.279 204.764,270.948C185.29,273.286 165.975,266.592 149.378,258.723C117.796,243.278 90.786,220.835 65.389,197.034C40.464,173.57 17.172,148.427 -4.593,122.075" style="fill:rgb(17,17,17);fill-rule:nonzero;"/>
        </g>
        <g transform="matrix(1,0,0,1,547.742,280.265)">
            <path d="M0,-110.682C-0.026,-110.707 -0.052,-110.729 -0.077,-110.754C-0.22,-110.896 -0.355,-111.041 -0.5,-111.182C-0.526,-111.207 -0.552,-111.229 -0.577,-111.254C-0.72,-111.396 -0.855,-111.541 -1,-111.682C-1.026,-111.707 -1.052,-111.729 -1.077,-111.754C-1.22,-111.896 -1.355,-112.041 -1.5,-112.182C-1.526,-112.207 -1.552,-112.229 -1.577,-112.254C-1.72,-112.396 -1.855,-112.541 -2,-112.682C-2.026,-112.707 -2.052,-112.729 -2.077,-112.754C-2.22,-112.896 -2.355,-113.041 -2.5,-113.182C-2.526,-113.207 -2.552,-113.229 -2.577,-113.254C-2.72,-113.396 -2.855,-113.541 -3,-113.682C-3.026,-113.707 -3.052,-113.729 -3.077,-113.754C-3.22,-113.896 -3.355,-114.041 -3.5,-114.182C-3.526,-114.207 -3.552,-114.229 -3.577,-114.254C-3.72,-114.396 -3.855,-114.541 -4,-114.682C-4.026,-114.707 -4.052,-114.729 -4.077,-114.754C-4.22,-114.896 -4.355,-115.041 -4.5,-115.182C-4.526,-115.207 -4.552,-115.229 -4.577,-115.254C-4.72,-115.396 -4.855,-115.541 -5,-115.682C-5.026,-115.707 -5.052,-115.729 -5.077,-115.754C-5.22,-115.896 -5.355,-116.041 -5.5,-116.182C-5.526,-116.207 -5.552,-116.229 -5.577,-116.254C-5.72,-116.396 -5.855,-116.541 -6,-116.682C-6.026,-116.707 -6.052,-116.729 -6.077,-116.754C-6.22,-116.896 -6.355,-117.041 -6.5,-117.182C-6.526,-117.207 -6.552,-117.229 -6.577,-117.254C-6.72,-117.396 -6.855,-117.541 -7,-117.682C-7.026,-117.707 -7.052,-117.729 -7.077,-117.754C-7.22,-117.896 -7.355,-118.041 -7.5,-118.182C-7.526,-118.207 -7.552,-118.229 -7.577,-118.254C-7.72,-118.396 -7.855,-118.541 -8,-118.682C-8.026,-118.707 -8.052,-118.729 -8.077,-118.754C-8.22,-118.896 -8.355,-119.041 -8.5,-119.182C-8.526,-119.207 -8.552,-119.229 -8.577,-119.254C-8.72,-119.396 -8.855,-119.541 -9,-119.682C-9.026,-119.707 -9.052,-119.729 -9.077,-119.754C-9.22,-119.896 -9.355,-120.041 -9.5,-120.182C-9.526,-120.207 -9.552,-120.229 -9.577,-120.254C-9.72,-120.396 -9.855,-120.541 -10,-120.682C-17.955,-128.381 -27.539,-132.526 -38.52,-133.024C-39.25,-133.194 -40.011,-133.284 -40.792,-133.284L-91.167,-133.284C-95.621,-133.284 -99.392,-130.369 -100.685,-126.345C-106.106,-130.483 -112.6,-132.659 -119.683,-132.659L-174.429,-132.659C-184,-132.659 -192.315,-129.343 -199.143,-122.803C-200.191,-121.799 -201.147,-120.743 -202.042,-119.655C-202.129,-119.742 -202.211,-119.831 -202.299,-119.917C-202.323,-119.939 -202.347,-119.96 -202.37,-119.982C-202.514,-120.126 -202.652,-120.274 -202.799,-120.417C-202.823,-120.439 -202.847,-120.46 -202.87,-120.482C-203.014,-120.626 -203.152,-120.774 -203.299,-120.917C-203.323,-120.939 -203.347,-120.96 -203.37,-120.982C-203.514,-121.126 -203.652,-121.274 -203.799,-121.417C-203.823,-121.439 -203.847,-121.46 -203.87,-121.482C-204.014,-121.626 -204.152,-121.774 -204.299,-121.917C-204.323,-121.939 -204.347,-121.96 -204.37,-121.982C-204.514,-122.126 -204.652,-122.274 -204.799,-122.417C-204.823,-122.439 -204.847,-122.46 -204.87,-122.482C-205.014,-122.626 -205.152,-122.774 -205.299,-122.917C-205.323,-122.939 -205.347,-122.96 -205.37,-122.982C-205.514,-123.126 -205.652,-123.274 -205.799,-123.417C-205.823,-123.439 -205.847,-123.46 -205.87,-123.482C-206.014,-123.626 -206.152,-123.774 -206.299,-123.917C-212.22,-129.636 -219.769,-132.659 -228.132,-132.659L-282.878,-132.659C-292.449,-132.659 -300.764,-129.343 -307.592,-122.803C-309.028,-121.428 -310.308,-119.966 -311.455,-118.437C-311.474,-118.456 -311.491,-118.476 -311.51,-118.495C-311.614,-118.601 -311.723,-118.699 -311.829,-118.803C-311.89,-118.867 -311.948,-118.932 -312.01,-118.995C-312.114,-119.101 -312.223,-119.199 -312.329,-119.303C-312.39,-119.367 -312.448,-119.432 -312.51,-119.495C-312.614,-119.601 -312.723,-119.699 -312.829,-119.803C-312.89,-119.867 -312.948,-119.932 -313.01,-119.995C-313.114,-120.101 -313.223,-120.199 -313.329,-120.303C-313.39,-120.367 -313.448,-120.432 -313.51,-120.495C-313.614,-120.601 -313.723,-120.699 -313.829,-120.803C-313.89,-120.867 -313.948,-120.932 -314.01,-120.995C-314.114,-121.101 -314.223,-121.199 -314.329,-121.303C-314.39,-121.367 -314.448,-121.432 -314.51,-121.495C-314.614,-121.601 -314.723,-121.699 -314.829,-121.803C-314.89,-121.867 -314.948,-121.932 -315.01,-121.995C-315.114,-122.101 -315.223,-122.199 -315.329,-122.303C-315.39,-122.367 -315.448,-122.432 -315.51,-122.495C-322.065,-129.145 -330.43,-132.659 -339.703,-132.659L-411.934,-132.659C-416.417,-132.659 -420.211,-129.708 -421.48,-125.644C-421.769,-125.864 -422.042,-126.096 -422.34,-126.309C-428.221,-130.524 -434.873,-132.659 -442.114,-132.659L-495.82,-132.659C-504.013,-132.659 -511.375,-129.572 -517.109,-123.733C-522.795,-117.947 -525.802,-110.52 -525.802,-102.26C-525.802,-94.963 -523.378,-88.289 -518.764,-82.812C-520.353,-82.074 -521.744,-80.922 -522.771,-79.441C-524.634,-76.755 -525.066,-73.328 -523.93,-70.264C-522.032,-65.148 -519.145,-60.738 -515.33,-57.091C-515.162,-56.924 -515,-56.754 -514.83,-56.591C-514.662,-56.424 -514.5,-56.254 -514.33,-56.091C-514.162,-55.924 -514,-55.754 -513.83,-55.591C-513.662,-55.424 -513.5,-55.254 -513.33,-55.091C-513.162,-54.924 -513,-54.754 -512.83,-54.591C-512.662,-54.424 -512.5,-54.254 -512.33,-54.091C-512.162,-53.924 -512,-53.754 -511.83,-53.591C-511.662,-53.424 -511.5,-53.254 -511.33,-53.091C-511.162,-52.924 -511,-52.754 -510.83,-52.591C-510.662,-52.424 -510.5,-52.254 -510.33,-52.091C-510.162,-51.924 -510,-51.754 -509.83,-51.591C-509.662,-51.424 -509.5,-51.254 -509.33,-51.091C-509.162,-50.924 -509,-50.754 -508.83,-50.591C-508.662,-50.424 -508.5,-50.254 -508.33,-50.091C-508.162,-49.924 -508,-49.754 -507.83,-49.591C-507.662,-49.424 -507.5,-49.254 -507.33,-49.091C-507.162,-48.924 -507,-48.754 -506.83,-48.591C-506.662,-48.424 -506.5,-48.254 -506.33,-48.091C-506.162,-47.924 -506,-47.754 -505.83,-47.591C-504.479,-46.247 -503.019,-44.992 -501.426,-43.852C-495.556,-39.641 -488.973,-37.505 -481.864,-37.505L-429.2,-37.505C-426.694,-37.505 -424.267,-37.819 -421.934,-38.414L-421.934,-33.151C-421.934,-30.262 -420.702,-27.667 -418.743,-25.842C-418.582,-25.669 -418.416,-25.502 -418.243,-25.342C-418.082,-25.169 -417.916,-25.002 -417.743,-24.842C-417.582,-24.669 -417.416,-24.502 -417.243,-24.342C-417.082,-24.169 -416.916,-24.002 -416.743,-23.842C-416.582,-23.669 -416.416,-23.502 -416.243,-23.342C-416.082,-23.169 -415.916,-23.002 -415.743,-22.842C-415.582,-22.669 -415.416,-22.502 -415.243,-22.342C-415.082,-22.169 -414.916,-22.002 -414.743,-21.842C-414.582,-21.669 -414.416,-21.502 -414.243,-21.342C-414.082,-21.169 -413.916,-21.002 -413.743,-20.842C-413.582,-20.669 -413.416,-20.502 -413.243,-20.342C-413.082,-20.169 -412.916,-20.002 -412.743,-19.842C-412.582,-19.669 -412.416,-19.502 -412.243,-19.342C-412.082,-19.169 -411.916,-19.002 -411.743,-18.842C-411.582,-18.669 -411.416,-18.502 -411.243,-18.342C-411.082,-18.169 -410.916,-18.002 -410.743,-17.842C-410.582,-17.669 -410.416,-17.502 -410.243,-17.342C-410.082,-17.169 -409.916,-17.002 -409.743,-16.842C-409.582,-16.669 -409.416,-16.502 -409.243,-16.342C-407.417,-14.383 -404.823,-13.151 -401.934,-13.151L-388.281,-13.151C-387.186,-11.265 -385.813,-9.51 -384.155,-7.923C-384.109,-7.879 -384.058,-7.842 -384.012,-7.798C-383.889,-7.676 -383.781,-7.544 -383.655,-7.423C-383.609,-7.379 -383.558,-7.342 -383.512,-7.298C-383.389,-7.176 -383.281,-7.044 -383.155,-6.923C-383.109,-6.879 -383.058,-6.842 -383.012,-6.798C-382.889,-6.676 -382.781,-6.544 -382.655,-6.423C-382.609,-6.379 -382.558,-6.342 -382.512,-6.298C-382.389,-6.176 -382.281,-6.044 -382.155,-5.923C-382.109,-5.879 -382.058,-5.842 -382.012,-5.798C-381.889,-5.676 -381.781,-5.544 -381.655,-5.423C-381.609,-5.379 -381.558,-5.342 -381.512,-5.298C-381.389,-5.176 -381.281,-5.044 -381.155,-4.923C-381.109,-4.879 -381.058,-4.842 -381.012,-4.798C-380.889,-4.676 -380.781,-4.544 -380.655,-4.423C-380.609,-4.379 -380.558,-4.342 -380.512,-4.298C-380.389,-4.176 -380.281,-4.044 -380.155,-3.923C-380.109,-3.879 -380.058,-3.842 -380.012,-3.798C-379.889,-3.676 -379.781,-3.544 -379.655,-3.423C-379.609,-3.379 -379.558,-3.342 -379.512,-3.298C-379.389,-3.176 -379.281,-3.044 -379.155,-2.923C-379.109,-2.879 -379.058,-2.842 -379.012,-2.798C-378.889,-2.676 -378.781,-2.544 -378.655,-2.423C-378.609,-2.379 -378.558,-2.342 -378.512,-2.298C-378.389,-2.176 -378.281,-2.044 -378.155,-1.923C-378.109,-1.879 -378.058,-1.842 -378.012,-1.798C-377.889,-1.676 -377.781,-1.544 -377.655,-1.423C-377.609,-1.379 -377.558,-1.342 -377.512,-1.298C-377.389,-1.176 -377.281,-1.044 -377.155,-0.923C-377.109,-0.879 -377.058,-0.842 -377.012,-0.798C-376.889,-0.676 -376.781,-0.544 -376.655,-0.423C-376.609,-0.379 -376.558,-0.342 -376.512,-0.298C-376.389,-0.176 -376.281,-0.044 -376.155,0.077C-376.109,0.121 -376.058,0.158 -376.012,0.202C-375.889,0.324 -375.781,0.456 -375.655,0.577C-375.609,0.621 -375.558,0.658 -375.512,0.702C-375.389,0.824 -375.281,0.956 -375.155,1.077C-375.109,1.121 -375.058,1.158 -375.012,1.202C-374.889,1.324 -374.781,1.456 -374.655,1.577C-374.609,1.621 -374.558,1.658 -374.512,1.702C-374.389,1.824 -374.281,1.956 -374.155,2.077C-369.572,6.47 -363.749,8.796 -357.323,8.796L-329.133,8.796C-329.011,8.796 -328.893,8.782 -328.772,8.781C-328.454,9.185 -328.105,9.561 -327.729,9.911C-327.568,10.084 -327.401,10.25 -327.229,10.411C-327.068,10.584 -326.901,10.75 -326.729,10.911C-326.568,11.084 -326.401,11.25 -326.229,11.411C-326.068,11.584 -325.901,11.75 -325.729,11.911C-325.568,12.084 -325.401,12.25 -325.229,12.411C-325.068,12.584 -324.901,12.75 -324.729,12.911C-324.568,13.084 -324.401,13.25 -324.229,13.411C-324.068,13.584 -323.901,13.75 -323.729,13.911C-323.568,14.084 -323.401,14.25 -323.229,14.411C-323.068,14.584 -322.901,14.75 -322.729,14.911C-322.568,15.084 -322.401,15.25 -322.229,15.411C-322.068,15.584 -321.901,15.75 -321.729,15.911C-321.568,16.084 -321.401,16.25 -321.229,16.411C-321.068,16.584 -320.901,16.75 -320.729,16.911C-320.568,17.084 -320.401,17.25 -320.229,17.411C-320.068,17.584 -319.901,17.75 -319.729,17.911C-319.568,18.084 -319.401,18.25 -319.229,18.411C-319.068,18.584 -318.901,18.75 -318.729,18.911C-318.568,19.084 -318.401,19.25 -318.229,19.411C-316.403,21.37 -313.808,22.602 -310.92,22.602L-301.987,22.602C-296.464,22.602 -291.987,18.125 -291.987,12.602L-291.987,9.029L-270.665,9.029C-264.691,9.029 -259.283,6.887 -254.921,2.868C-250.485,6.733 -245.012,8.796 -238.995,8.796L-209.993,8.796C-206.099,8.796 -202.449,7.941 -199.095,6.267C-197.346,7.768 -195.077,8.68 -192.592,8.68L-183.195,8.68C-177.672,8.68 -173.195,4.203 -173.195,-1.32L-173.195,-5.282C-172.848,-4.826 -172.465,-4.401 -172.046,-4.011C-171.885,-3.838 -171.719,-3.672 -171.546,-3.511C-171.385,-3.338 -171.219,-3.172 -171.046,-3.011C-170.885,-2.838 -170.719,-2.672 -170.546,-2.511C-170.385,-2.338 -170.219,-2.172 -170.046,-2.011C-169.885,-1.838 -169.719,-1.672 -169.546,-1.511C-169.385,-1.338 -169.219,-1.172 -169.046,-1.011C-168.885,-0.838 -168.719,-0.672 -168.546,-0.511C-168.385,-0.338 -168.219,-0.172 -168.046,-0.011C-167.885,0.162 -167.719,0.328 -167.546,0.489C-167.385,0.662 -167.219,0.828 -167.046,0.989C-166.885,1.162 -166.719,1.328 -166.546,1.489C-166.385,1.662 -166.219,1.828 -166.046,1.989C-165.885,2.162 -165.719,2.328 -165.546,2.489C-165.385,2.662 -165.219,2.828 -165.046,2.989C-164.885,3.162 -164.719,3.328 -164.546,3.489C-164.385,3.662 -164.219,3.828 -164.046,3.989C-163.885,4.162 -163.719,4.328 -163.546,4.489C-163.385,4.662 -163.219,4.828 -163.046,4.989C-162.885,5.162 -162.719,5.328 -162.546,5.489C-160.721,7.448 -158.126,8.68 -155.237,8.68L-145.841,8.68C-140.318,8.68 -135.841,4.203 -135.841,-1.32L-135.841,-17.887C-135.764,-18.386 -135.724,-18.897 -135.724,-19.417C-135.724,-26.386 -138.201,-32.741 -142.896,-37.922L-112.39,-37.922C-104.95,-37.922 -98.115,-40.013 -92.074,-44.139C-91.921,-44.243 -91.781,-44.357 -91.633,-44.465C-91.585,-44.418 -91.535,-44.371 -91.486,-44.325C-91.325,-44.152 -91.158,-43.986 -90.986,-43.825C-90.825,-43.652 -90.658,-43.486 -90.486,-43.325C-90.325,-43.152 -90.158,-42.986 -89.986,-42.825C-89.825,-42.652 -89.658,-42.486 -89.486,-42.325C-89.325,-42.152 -89.158,-41.986 -88.986,-41.825C-88.825,-41.652 -88.658,-41.486 -88.486,-41.325C-86.66,-39.362 -84.059,-38.13 -81.167,-38.13L-64.306,-38.13C-58.783,-38.13 -54.306,-42.607 -54.306,-48.13L-54.306,-87.047L-34.14,-87.047L-34.14,-58.13C-34.14,-55.241 -32.908,-52.646 -30.949,-50.821C-30.788,-50.648 -30.622,-50.481 -30.449,-50.321C-30.288,-50.148 -30.122,-49.981 -29.949,-49.821C-29.788,-49.648 -29.622,-49.481 -29.449,-49.321C-29.288,-49.148 -29.122,-48.981 -28.949,-48.821C-28.788,-48.648 -28.622,-48.481 -28.449,-48.321C-28.288,-48.148 -28.122,-47.981 -27.949,-47.821C-27.788,-47.648 -27.622,-47.481 -27.449,-47.321C-27.288,-47.148 -27.122,-46.981 -26.949,-46.821C-26.788,-46.648 -26.622,-46.481 -26.449,-46.321C-26.288,-46.148 -26.122,-45.981 -25.949,-45.821C-25.788,-45.648 -25.622,-45.481 -25.449,-45.321C-25.288,-45.148 -25.122,-44.981 -24.949,-44.821C-24.788,-44.648 -24.622,-44.481 -24.449,-44.321C-24.288,-44.148 -24.122,-43.981 -23.949,-43.821C-23.788,-43.648 -23.622,-43.481 -23.449,-43.321C-23.288,-43.148 -23.122,-42.981 -22.949,-42.821C-22.788,-42.648 -22.622,-42.481 -22.449,-42.321C-22.288,-42.148 -22.122,-41.981 -21.949,-41.821C-21.788,-41.648 -21.622,-41.481 -21.449,-41.321C-19.623,-39.362 -17.029,-38.13 -14.14,-38.13L2.721,-38.13C8.244,-38.13 12.721,-42.607 12.721,-48.13L12.721,-78.568C12.857,-79.225 12.929,-79.905 12.929,-80.602C12.929,-92.251 8.579,-102.371 0,-110.682" style="fill:rgb(17,17,17);fill-rule:nonzero;"/>
        </g>
        <g transform="matrix(1,0,0,1,128.317,178.005)">
            <path d="M0,24.354C0,29.906 -1.945,34.694 -5.829,38.717C-9.715,42.744 -14.363,44.754 -19.775,44.754L-72.439,44.754C-77.435,44.754 -82.015,43.264 -86.178,40.278C-90.341,37.296 -93.327,33.376 -95.129,28.518L-20.191,28.309C-17.417,28.309 -16.028,26.992 -16.028,24.354C-16.028,21.58 -17.417,20.191 -20.191,20.191L-76.395,20.191C-81.946,20.191 -86.666,18.213 -90.549,14.258C-94.436,10.304 -96.377,5.552 -96.377,-0C-96.377,-5.689 -94.436,-10.512 -90.549,-14.467C-86.666,-18.422 -81.946,-20.4 -76.395,-20.4L-22.689,-20.4C-17.557,-20.4 -12.906,-18.907 -8.743,-15.924C-4.58,-12.938 -1.666,-9.02 0,-4.164L-76.395,-4.164C-79.032,-4.164 -80.35,-2.775 -80.35,-0C-80.35,2.637 -79.032,3.955 -76.395,3.955L-19.775,3.955C-14.363,3.955 -9.715,5.968 -5.829,9.991C-1.945,14.018 0,18.806 0,24.354" style="fill:rgb(220,220,220);fill-rule:nonzero;"/>
        </g>
        <g transform="matrix(1,0,0,1,216.158,206.522)">
            <path d="M0,-8.326L0,-24.562C0,-26.781 -0.8,-28.69 -2.394,-30.286C-3.991,-31.88 -5.9,-32.68 -8.118,-32.68L-64.321,-32.68L-64.321,-16.236C-64.321,-11.793 -62.76,-7.978 -59.638,-4.787C-56.515,-1.593 -52.736,0.001 -48.293,0.001L-8.118,0.001C-5.9,0.001 -3.991,-0.796 -2.394,-2.393C-0.8,-3.987 0,-5.965 0,-8.326M16.028,-8.326C16.028,-1.525 13.667,4.268 8.951,9.055C4.231,13.843 -1.457,16.237 -8.118,16.237L-48.293,16.237C-53.985,16.237 -59.325,14.78 -64.321,11.865L-64.321,40.591L-80.349,40.591L-80.349,-48.917L-8.118,-48.917C-1.457,-48.917 4.231,-46.523 8.951,-41.735C13.667,-36.948 16.028,-31.223 16.028,-24.562L16.028,-8.326Z" style="fill:rgb(220,220,220);fill-rule:nonzero;"/>
        </g>
        <g transform="matrix(1,0,0,1,323.772,202.152)">
            <path d="M0,-24.355C0,-27.129 -1.389,-28.518 -4.162,-28.518L-58.908,-28.518C-61.27,-28.518 -63.247,-27.718 -64.841,-26.125C-66.438,-24.527 -67.234,-22.618 -67.234,-20.4L-4.162,-20.4C-1.389,-20.4 0,-21.717 0,-24.355M16.861,3.955C15.197,8.814 12.178,12.733 7.807,15.716C3.436,18.701 -1.457,20.191 -6.869,20.191L-58.908,20.191C-65.85,20.191 -71.781,17.833 -76.705,13.114C-81.633,8.397 -84.095,2.637 -84.095,-4.164L-84.095,-20.4C-84.095,-27.061 -81.633,-32.75 -76.705,-37.469C-71.781,-42.185 -65.85,-44.546 -58.908,-44.546L-4.162,-44.546C1.666,-44.546 6.627,-42.569 10.721,-38.614C14.813,-34.659 16.861,-29.904 16.861,-24.355C16.861,-18.803 14.813,-14.051 10.721,-10.096C6.627,-6.141 1.666,-4.164 -4.162,-4.164L-67.234,-4.164C-67.234,-1.942 -66.438,-0.033 -64.841,1.561C-63.247,3.158 -61.27,3.955 -58.908,3.955L16.861,3.955Z" style="fill:rgb(220,220,220);fill-rule:nonzero;"/>
        </g>
        <g transform="matrix(1,0,0,1,432.222,202.152)">
            <path d="M0,-24.355C0,-27.129 -1.389,-28.518 -4.162,-28.518L-58.908,-28.518C-61.27,-28.518 -63.246,-27.718 -64.84,-26.125C-66.438,-24.527 -67.234,-22.618 -67.234,-20.4L-4.162,-20.4C-1.389,-20.4 0,-21.717 0,-24.355M16.861,3.955C15.197,8.814 12.178,12.733 7.807,15.716C3.436,18.701 -1.457,20.191 -6.869,20.191L-58.908,20.191C-65.85,20.191 -71.781,17.833 -76.705,13.114C-81.633,8.397 -84.096,2.637 -84.096,-4.164L-84.096,-20.4C-84.096,-27.061 -81.633,-32.75 -76.705,-37.469C-71.781,-42.185 -65.85,-44.546 -58.908,-44.546L-4.162,-44.546C1.666,-44.546 6.627,-42.569 10.721,-38.614C14.813,-34.659 16.861,-29.904 16.861,-24.355C16.861,-18.803 14.813,-14.051 10.721,-10.096C6.627,-6.141 1.666,-4.164 -4.162,-4.164L-67.234,-4.164C-67.234,-1.942 -66.438,-0.033 -64.84,1.561C-63.246,3.158 -61.27,3.955 -58.908,3.955L16.861,3.955Z" style="fill:rgb(220,220,220);fill-rule:nonzero;"/>
        </g>
        <g transform="matrix(1,0,0,1,540.671,189.454)">
            <path d="M0,0.208L-0.207,0.208L-0.207,32.681L-17.068,32.681L-17.068,0.208L-16.859,0.208C-16.859,-4.232 -18.492,-8.047 -21.752,-11.241C-25.014,-14.432 -29.006,-16.028 -33.721,-16.028L-33.721,-16.237L-67.234,-16.237L-67.234,32.681L-84.096,32.681L-84.096,-32.473L-33.721,-32.473L-33.721,-32.265C-24.426,-32.265 -16.48,-29.071 -9.887,-22.689C-3.297,-16.305 0,-8.671 0,0.208" style="fill:rgb(220,220,220);fill-rule:nonzero;"/>
        </g>
        <g transform="matrix(1,0,0,1,213.25,246.555)">
            <path d="M0,8.932C0,10.17 -0.446,11.235 -1.334,12.122C-2.224,13.013 -3.326,13.456 -4.641,13.456L-32.831,13.456C-34.147,13.456 -35.249,13.013 -36.137,12.122C-37.027,11.235 -37.471,10.17 -37.471,8.932L-37.471,-0.116C-37.471,-1.353 -37.027,-2.417 -36.137,-3.307C-35.249,-4.195 -34.147,-4.641 -32.831,-4.641L-4.641,-4.641C-3.326,-4.641 -2.224,-4.195 -1.334,-3.307C-0.446,-2.417 0,-1.353 0,-0.116L0,8.932ZM-4.641,-13.573L-32.831,-13.573C-36.775,-13.573 -40.101,-12.257 -42.808,-9.629C-45.516,-6.999 -46.868,-3.829 -46.868,-0.116L-46.868,8.932C-46.868,12.723 -45.496,15.933 -42.75,18.561C-40.005,21.192 -36.699,22.505 -32.831,22.505L-4.641,22.505C-0.774,22.505 2.532,21.192 5.278,18.561C8.022,15.933 9.396,12.723 9.396,8.932L9.396,-0.116C9.396,-3.829 8.042,-6.999 5.336,-9.629C2.628,-12.257 -0.696,-13.573 -4.641,-13.573" style="fill:rgb(220,220,220);fill-rule:nonzero;"/>
        </g>
        <g transform="matrix(1,0,0,1,271.602,260.245)">
            <path d="M0,-4.641C0,-3.325 -0.445,-2.223 -1.334,-1.334C-2.224,-0.445 -3.288,0 -4.524,0L-26.914,0C-29.39,0 -31.497,-0.889 -33.237,-2.668C-34.977,-4.447 -35.847,-6.573 -35.847,-9.049L-35.847,-18.214L-4.524,-18.214C-3.288,-18.214 -2.224,-17.768 -1.334,-16.88C-0.445,-15.99 0,-14.926 0,-13.689L0,-4.641ZM-4.524,-27.263L-44.779,-27.263L-44.779,22.622L-35.847,22.622L-35.847,6.612C-33.063,8.236 -30.086,9.048 -26.914,9.048L-4.524,9.048C-0.812,9.048 2.358,7.714 4.988,5.046C7.617,2.378 8.933,-0.851 8.933,-4.641L8.933,-13.689C8.933,-17.402 7.617,-20.592 4.988,-23.26C2.358,-25.929 -0.812,-27.263 -4.524,-27.263" style="fill:rgb(220,220,220);fill-rule:nonzero;"/>
        </g>
        <g transform="matrix(1,0,0,1,295.441,258.794)">
            <path d="M0,-15.545C0.888,-16.433 1.99,-16.879 3.307,-16.879L33.816,-16.879C35.363,-16.879 36.137,-16.105 36.137,-14.559C36.137,-13.088 35.363,-12.355 33.816,-12.355L-1.334,-12.355C-1.334,-13.591 -0.89,-14.655 0,-15.545M42.111,-6.612C44.392,-8.816 45.533,-11.464 45.533,-14.559C45.533,-17.651 44.392,-20.301 42.111,-22.505C39.829,-24.71 37.064,-25.812 33.816,-25.812L3.307,-25.812C-0.562,-25.812 -3.868,-24.496 -6.612,-21.867C-9.358,-19.237 -10.73,-16.067 -10.73,-12.355L-10.73,-3.306C-10.73,0.485 -9.358,3.695 -6.612,6.323C-3.868,8.954 -0.562,10.267 3.307,10.267L32.309,10.267C35.325,10.267 38.051,9.437 40.487,7.773C42.924,6.111 44.605,3.926 45.533,1.218L3.307,1.218C1.99,1.218 0.888,0.775 0,-0.116C-0.89,-1.003 -1.334,-2.068 -1.334,-3.306L33.816,-3.306C37.064,-3.306 39.829,-4.408 42.111,-6.612" style="fill:rgb(220,220,220);fill-rule:nonzero;"/>
        </g>
        <g transform="matrix(1,0,0,1,386.507,263.492)">
            <path d="M0,-25.405C-3.674,-28.962 -8.103,-30.741 -13.282,-30.741L-13.282,-30.858L-41.356,-30.858L-41.356,5.453L-31.96,5.453L-31.96,-21.809L-13.282,-21.809L-13.282,-21.693C-10.654,-21.693 -8.431,-20.803 -6.612,-19.025C-4.796,-17.244 -3.886,-15.118 -3.886,-12.644L-4.002,-12.644L-4.002,5.453L5.395,5.453L5.395,-12.644L5.511,-12.644C5.511,-17.593 3.673,-21.847 0,-25.405" style="fill:rgb(220,220,220);fill-rule:nonzero;"/>
        </g>
        <g transform="matrix(1,0,0,1,554.205,268.91)">
            <path d="M0,-22.462C-0.16,-22.636 -0.326,-22.802 -0.5,-22.962C-0.66,-23.136 -0.826,-23.302 -1,-23.462C-1.16,-23.636 -1.326,-23.802 -1.5,-23.962C-1.66,-24.136 -1.826,-24.302 -2,-24.462C-2.16,-24.636 -2.326,-24.802 -2.5,-24.962C-2.66,-25.136 -2.826,-25.302 -3,-25.462C-3.16,-25.636 -3.326,-25.802 -3.5,-25.962C-3.66,-26.136 -3.826,-26.302 -4,-26.462C-4.16,-26.636 -4.326,-26.802 -4.5,-26.962C-4.66,-27.136 -4.826,-27.302 -5,-27.462C-5.16,-27.636 -5.326,-27.802 -5.5,-27.962C-5.66,-28.136 -5.826,-28.302 -6,-28.462C-6.16,-28.636 -6.326,-28.802 -6.5,-28.962C-6.66,-29.136 -6.826,-29.302 -7,-29.462C-7.16,-29.636 -7.326,-29.802 -7.5,-29.962C-7.66,-30.136 -7.826,-30.302 -8,-30.462C-8.16,-30.636 -8.326,-30.802 -8.5,-30.962C-8.66,-31.136 -8.826,-31.302 -9,-31.462C-9.16,-31.636 -9.326,-31.802 -9.5,-31.962C-10.991,-33.588 -13.126,-34.613 -15.506,-34.613L-143.668,-34.613C-148.173,-34.613 -151.825,-30.961 -151.825,-26.456L-151.825,-6.007C-151.825,-3.627 -150.8,-1.492 -149.174,-0C-149.014,0.174 -148.848,0.34 -148.674,0.5C-148.514,0.674 -148.348,0.84 -148.174,1C-148.014,1.174 -147.848,1.34 -147.674,1.5C-147.514,1.674 -147.348,1.84 -147.174,2C-147.014,2.174 -146.848,2.34 -146.674,2.5C-146.514,2.674 -146.348,2.84 -146.174,3C-146.014,3.174 -145.848,3.34 -145.674,3.5C-145.514,3.674 -145.348,3.84 -145.174,4C-145.014,4.174 -144.848,4.34 -144.674,4.5C-144.514,4.674 -144.348,4.84 -144.174,5C-144.014,5.174 -143.848,5.34 -143.674,5.5C-143.514,5.674 -143.348,5.84 -143.174,6C-143.014,6.174 -142.848,6.34 -142.674,6.5C-142.514,6.674 -142.348,6.84 -142.174,7C-142.014,7.174 -141.848,7.34 -141.674,7.5C-141.514,7.674 -141.348,7.84 -141.174,8C-141.014,8.174 -140.848,8.34 -140.674,8.5C-140.514,8.674 -140.348,8.84 -140.174,9C-140.014,9.174 -139.848,9.34 -139.674,9.5C-138.183,11.125 -136.048,12.151 -133.668,12.151L-5.506,12.151C-1.001,12.151 2.651,8.499 2.651,3.993L2.651,-16.456C2.651,-18.836 1.626,-20.971 0,-22.462" style="fill:rgb(220,220,220);fill-rule:nonzero;"/>
        </g>
        <g transform="matrix(1,0,0,1,554.205,268.91)">
            <path d="M0,-22.462C-0.16,-22.636 -0.326,-22.802 -0.5,-22.962C-0.66,-23.136 -0.826,-23.302 -1,-23.462C-1.16,-23.636 -1.326,-23.802 -1.5,-23.962C-1.66,-24.136 -1.826,-24.302 -2,-24.462C-2.16,-24.636 -2.326,-24.802 -2.5,-24.962C-2.66,-25.136 -2.826,-25.302 -3,-25.462C-3.16,-25.636 -3.326,-25.802 -3.5,-25.962C-3.66,-26.136 -3.826,-26.302 -4,-26.462C-4.16,-26.636 -4.326,-26.802 -4.5,-26.962C-4.66,-27.136 -4.826,-27.302 -5,-27.462C-5.16,-27.636 -5.326,-27.802 -5.5,-27.962C-5.66,-28.136 -5.826,-28.302 -6,-28.462C-6.16,-28.636 -6.326,-28.802 -6.5,-28.962C-6.66,-29.136 -6.826,-29.302 -7,-29.462C-7.16,-29.636 -7.326,-29.802 -7.5,-29.962C-7.66,-30.136 -7.826,-30.302 -8,-30.462C-8.16,-30.636 -8.326,-30.802 -8.5,-30.962C-8.66,-31.136 -8.826,-31.302 -9,-31.462C-9.16,-31.636 -9.326,-31.802 -9.5,-31.962C-10.991,-33.588 -13.126,-34.613 -15.506,-34.613L-143.668,-34.613C-148.173,-34.613 -151.825,-30.961 -151.825,-26.456L-151.825,-6.007C-151.825,-3.627 -150.8,-1.492 -149.174,-0C-149.014,0.174 -148.848,0.34 -148.674,0.5C-148.514,0.674 -148.348,0.84 -148.174,1C-148.014,1.174 -147.848,1.34 -147.674,1.5C-147.514,1.674 -147.348,1.84 -147.174,2C-147.014,2.174 -146.848,2.34 -146.674,2.5C-146.514,2.674 -146.348,2.84 -146.174,3C-146.014,3.174 -145.848,3.34 -145.674,3.5C-145.514,3.674 -145.348,3.84 -145.174,4C-145.014,4.174 -144.848,4.34 -144.674,4.5C-144.514,4.674 -144.348,4.84 -144.174,5C-144.014,5.174 -143.848,5.34 -143.674,5.5C-143.514,5.674 -143.348,5.84 -143.174,6C-143.014,6.174 -142.848,6.34 -142.674,6.5C-142.514,6.674 -142.348,6.84 -142.174,7C-142.014,7.174 -141.848,7.34 -141.674,7.5C-141.514,7.674 -141.348,7.84 -141.174,8C-141.014,8.174 -140.848,8.34 -140.674,8.5C-140.514,8.674 -140.348,8.84 -140.174,9C-140.014,9.174 -139.848,9.34 -139.674,9.5C-138.183,11.125 -136.048,12.151 -133.668,12.151L-5.506,12.151C-1.001,12.151 2.651,8.499 2.651,3.993L2.651,-16.456C2.651,-18.836 1.626,-20.971 0,-22.462Z" style="fill:none;fill-rule:nonzero;stroke:rgb(17,17,17);stroke-width:5px;"/>
        </g>
        <text x="423.997px" y="256.106px" style="font-family:'Troglodyte';font-size:35px;fill:rgb(17,17,17);">winter</text>
        <g transform="matrix(25,0,0,25,511.412,269.106)">
        </g>
        <text x="437.89px" y="269.106px" style="font-family:'Troglodyte';font-size:25px;fill:rgb(17,17,17);">2025</text>
        <g transform="matrix(1,0,0,1,54.7973,253.922)">
            <path d="M0,81.839C-2.557,81.839 -4.642,79.76 -4.648,77.203C-4.708,55.512 -4.742,43.564 -9.382,38.924C-14.022,34.283 -25.97,34.25 -47.66,34.19C-50.217,34.184 -52.297,32.098 -52.297,29.541C-52.297,26.985 -50.218,24.9 -47.662,24.894C-25.97,24.833 -14.022,24.8 -9.382,20.159C-6.722,17.499 -5.441,12.431 -4.963,2.667L-4.833,0L-2.18,0.306C-0.307,0.522 1.372,0.766 2.952,1.055L4.894,1.408L5,3.379C5.503,12.688 6.772,17.549 9.382,20.159C11.694,22.471 15.753,23.716 22.955,24.322L24.964,24.491L25.224,26.491C25.443,28.179 25.635,30.041 25.793,32.025L25.993,34.522L23.496,34.716C15.965,35.304 11.744,36.563 9.382,38.924C4.742,43.565 4.709,55.513 4.648,77.202C4.641,79.76 2.556,81.839 0,81.839" style="fill:rgb(220,220,220);fill-rule:nonzero;"/>
        </g>
        <g transform="matrix(1,0,0,1,47.5977,338.261)">
            <path d="M0,-87.126L-0.261,-81.794C-0.699,-72.834 -1.803,-68.095 -3.95,-65.948C-7.861,-62.036 -20.135,-62.002 -40.469,-61.946C-44.4,-61.935 -47.598,-58.729 -47.598,-54.797C-47.598,-50.866 -44.4,-47.66 -40.468,-47.649C-20.135,-47.592 -7.861,-47.558 -3.95,-43.647C-0.039,-39.736 -0.005,-27.462 0.052,-7.128C0.062,-3.198 3.269,0 7.2,0C11.131,0 14.338,-3.198 14.348,-7.129C14.405,-27.462 14.439,-39.736 18.35,-43.647C20.229,-45.526 24.096,-46.6 30.89,-47.131L35.883,-47.521L35.485,-52.513C35.324,-54.537 35.128,-56.44 34.903,-58.169L34.384,-62.169L30.364,-62.508C23.889,-63.053 20.184,-64.114 18.35,-65.947C16.249,-68.049 15.156,-72.579 14.696,-81.095L14.483,-85.036L10.601,-85.744C8.984,-86.039 7.202,-86.299 5.303,-86.517L0,-87.126ZM4.733,-81.55C6.506,-81.346 8.161,-81.107 9.703,-80.825C10.209,-71.462 11.486,-65.74 14.815,-62.412C17.734,-59.492 22.499,-58.152 29.945,-57.525C30.164,-55.838 30.348,-54.036 30.501,-52.116C22.733,-51.509 17.807,-50.175 14.814,-47.183C9.445,-41.813 9.412,-30.226 9.348,-7.142C9.345,-5.961 8.381,-5 7.2,-5C6.018,-5 5.055,-5.961 5.052,-7.142C4.987,-30.226 4.955,-41.813 -0.415,-47.183C-5.784,-52.552 -17.371,-52.585 -40.455,-52.649C-41.637,-52.652 -42.598,-53.616 -42.598,-54.797C-42.598,-55.979 -41.637,-56.942 -40.456,-56.946C-17.371,-57.01 -5.784,-57.042 -0.415,-62.412C2.999,-65.825 4.254,-71.757 4.733,-81.55" style="fill:rgb(17,17,17);fill-rule:nonzero;"/>
        </g>
        <g transform="matrix(1,0,0,1,50.1084,234.002)">
            <path d="M0,10.861C0.023,8.055 0.032,5.046 0.041,1.8C0.047,-0.755 2.132,-2.835 4.689,-2.835C7.245,-2.835 9.33,-0.756 9.337,1.8C9.346,4.801 9.354,7.603 9.373,10.226L9.388,12.339L7.308,12.707C5.895,12.957 4.375,13.177 2.792,13.364L-0.023,13.696L0,10.861Z" style="fill:rgb(220,220,220);fill-rule:nonzero;"/>
        </g>
        <g transform="matrix(1,0,0,1,54.7975,250.511)">
            <path d="M0,-21.845C-3.931,-21.845 -7.138,-18.647 -7.148,-14.715C-7.157,-11.475 -7.166,-8.47 -7.189,-5.669L-7.235,0L-1.605,-0.662C0.024,-0.854 1.591,-1.082 3.055,-1.341L7.214,-2.077L7.184,-6.301C7.165,-8.921 7.157,-11.72 7.148,-14.717C7.138,-18.647 3.931,-21.845 0,-21.845M0,-16.845C1.181,-16.845 2.145,-15.884 2.148,-14.703C2.157,-11.698 2.165,-8.892 2.184,-6.265C0.814,-6.022 -0.64,-5.81 -2.189,-5.628C-2.166,-8.437 -2.157,-11.452 -2.148,-14.702C-2.145,-15.884 -1.181,-16.845 0,-16.845" style="fill:rgb(17,17,17);fill-rule:nonzero;"/>
        </g>
        <g transform="matrix(1,0,0,1,86.6596,281.449)">
            <path d="M0,4.047C0.135,2.413 0.292,0.874 0.466,-0.526L0.743,-2.751L2.985,-2.718C6.833,-2.659 11.188,-2.647 15.8,-2.634C18.355,-2.628 20.436,-0.543 20.436,2.014C20.436,4.57 18.355,6.655 15.799,6.662C11.014,6.676 6.494,6.688 2.533,6.753L-0.228,6.798L0,4.047Z" style="fill:rgb(220,220,220);fill-rule:nonzero;"/>
        </g>
        <g transform="matrix(1,0,0,1,85.1975,290.79)">
            <path d="M0,-14.625L-0.553,-10.174C-0.731,-8.738 -0.891,-7.166 -1.029,-5.501L-1.485,0L4.035,-0.089C7.971,-0.152 12.487,-0.165 17.269,-0.178C21.199,-0.189 24.398,-3.395 24.398,-7.326C24.398,-11.258 21.199,-14.464 17.268,-14.475C12.678,-14.487 8.341,-14.5 4.485,-14.558L0,-14.625ZM4.409,-9.558C8.236,-9.501 12.498,-9.488 17.255,-9.475C18.436,-9.472 19.398,-8.508 19.398,-7.326C19.398,-6.145 18.436,-5.181 17.255,-5.178C12.31,-5.164 7.896,-5.152 3.954,-5.088C4.084,-6.657 4.234,-8.148 4.409,-9.558" style="fill:rgb(17,17,17);fill-rule:nonzero;"/>
        </g>
        <g transform="matrix(1,0,0,1,83.6074,123.193)">
            <path d="M0,205.24C-2.744,205.24 -4.983,203.008 -4.991,200.262C-5.088,165.548 -5.136,148.124 -12.82,140.44C-20.504,132.757 -37.928,132.708 -72.641,132.61C-75.387,132.604 -77.62,130.366 -77.62,127.62C-77.62,124.876 -75.388,122.636 -72.644,122.629C-37.929,122.532 -20.504,122.483 -12.82,114.8C-5.27,107.249 -5.078,36.779 -4.996,6.687L-4.991,4.977C-4.983,2.233 -2.744,0 0,0C2.745,0 4.984,2.233 4.991,4.978L4.996,6.687C5.077,36.779 5.27,107.249 12.82,114.8C20.401,122.381 78.256,122.54 109.338,122.625L110.642,122.629C113.387,122.636 115.62,124.876 115.62,127.62C115.62,130.366 113.386,132.604 110.64,132.61L109.32,132.614C78.244,132.7 20.4,132.861 12.82,140.44C5.136,148.124 5.087,165.548 4.991,200.261C4.984,203.007 2.745,205.24 0,205.24" style="fill:rgb(220,220,220);fill-rule:nonzero;"/>
        </g>
        <g transform="matrix(1,0,0,1,83.6071,330.933)">
            <path d="M0,-210.24C-4.12,-210.24 -7.48,-206.888 -7.491,-202.769L-7.496,-201.063C-7.545,-182.965 -7.612,-158.179 -8.679,-136.432C-10.419,-100.986 -13.914,-95.448 -14.598,-94.698C-21.542,-87.753 -39.695,-87.703 -72.65,-87.611C-76.768,-87.6 -80.12,-84.24 -80.12,-80.12C-80.12,-76.001 -76.768,-72.64 -72.649,-72.629C-39.695,-72.537 -21.542,-72.487 -14.588,-65.532C-7.633,-58.578 -7.583,-40.425 -7.491,-7.47C-7.48,-3.352 -4.12,0 0,0C4.12,0 7.48,-3.352 7.491,-7.471C7.583,-40.425 7.633,-58.578 14.588,-65.532C15.273,-66.217 20.213,-69.72 50.296,-71.434C69.259,-72.515 91.482,-72.577 109.339,-72.626L110.649,-72.629C114.768,-72.64 118.12,-76.001 118.12,-80.12C118.12,-84.24 114.768,-87.6 110.649,-87.611L109.343,-87.615C91.486,-87.664 69.262,-87.725 50.298,-88.806C20.213,-90.52 15.273,-94.023 14.588,-94.708C13.914,-95.448 10.419,-100.986 8.68,-136.432C7.612,-158.179 7.545,-182.965 7.496,-201.063L7.491,-202.77C7.48,-206.889 4.12,-210.24 0,-210.24M0,-205.24C1.37,-205.24 2.487,-204.126 2.491,-202.756C2.59,-167.355 2.639,-99.586 11.053,-91.173C19.466,-82.759 75.235,-82.71 110.636,-82.611C112.005,-82.608 113.12,-81.49 113.12,-80.12C113.12,-78.75 112.005,-77.633 110.635,-77.629C75.234,-77.531 19.465,-77.481 11.053,-69.068C2.639,-60.654 2.59,-42.885 2.491,-7.485C2.487,-6.115 1.37,-5 0,-5C-1.37,-5 -2.487,-6.115 -2.491,-7.484C-2.589,-42.885 -2.639,-60.654 -11.053,-69.068C-19.465,-77.481 -37.234,-77.531 -72.636,-77.629C-74.005,-77.633 -75.12,-78.75 -75.12,-80.12C-75.12,-81.49 -74.005,-82.608 -72.636,-82.611C-37.235,-82.71 -19.466,-82.759 -11.052,-91.173C-2.639,-99.586 -2.589,-167.355 -2.491,-202.756C-2.487,-204.126 -1.37,-205.24 0,-205.24" style="fill:rgb(17,17,17);fill-rule:nonzero;"/>
        </g>
        <g transform="matrix(1,0,0,1,117.087,143.171)">
            <path d="M0,-16.507C-0.798,-16.507 -1.52,-16.195 -2.069,-15.696L-2.069,-16.641C-2.069,-18.346 -3.456,-19.733 -5.161,-19.733C-5.96,-19.733 -6.681,-19.421 -7.23,-18.922L-7.23,-19.867C-7.23,-21.572 -8.618,-22.958 -10.323,-22.958C-12.027,-22.958 -13.414,-21.572 -13.414,-19.867L-13.414,-18.922C-13.963,-19.421 -14.685,-19.733 -15.483,-19.733C-17.188,-19.733 -18.576,-18.346 -18.576,-16.641L-18.576,-15.696C-19.125,-16.195 -19.846,-16.507 -20.645,-16.507C-22.35,-16.507 -23.737,-15.12 -23.737,-13.415L-23.737,-3.093C-23.737,-1.388 -22.35,-0.001 -20.645,-0.001C-19.846,-0.001 -19.125,-0.313 -18.576,-0.811L-18.576,0.133C-18.576,1.838 -17.188,3.225 -15.483,3.225C-14.685,3.225 -13.963,2.913 -13.414,2.414L-13.414,3.359C-13.414,5.064 -12.027,6.451 -10.323,6.451C-8.618,6.451 -7.23,5.064 -7.23,3.359L-7.23,2.415C-6.681,2.913 -5.96,3.225 -5.161,3.225C-3.456,3.225 -2.069,1.838 -2.069,0.133L-2.069,-0.811C-1.52,-0.313 -0.798,-0.001 0,-0.001C1.705,-0.001 3.092,-1.388 3.092,-3.093L3.092,-13.415C3.092,-15.12 1.705,-16.507 0,-16.507" style="fill:rgb(17,17,17);fill-rule:nonzero;"/>
        </g>
        <g transform="matrix(1,0,0,1,203.838,136.275)">
            <path d="M0,-0.325C0,-3.854 -2.732,-6.618 -6.22,-6.618C-7.407,-6.618 -8.516,-6.283 -9.471,-5.708C-10.052,-6.247 -10.843,-6.582 -11.715,-6.582C-12.347,-6.582 -12.898,-6.406 -13.359,-6.166C-13.819,-6.415 -14.338,-6.546 -14.892,-6.546C-15.604,-6.546 -16.289,-6.277 -16.85,-5.812C-17.394,-6.263 -18.08,-6.545 -18.836,-6.545C-19.387,-6.545 -19.901,-6.406 -20.354,-6.146C-20.921,-6.43 -21.603,-6.618 -22.452,-6.618C-23.922,-6.618 -25.36,-5.99 -26.502,-4.849C-26.555,-4.796 -26.601,-4.738 -26.652,-4.684C-26.792,-4.865 -26.947,-5.043 -27.129,-5.216C-28.198,-6.224 -29.766,-6.735 -31.384,-6.549L-31.384,-7.265C-31.384,-9.115 -32.769,-10.564 -34.537,-10.564C-35.85,-10.564 -36.921,-9.803 -37.406,-8.661C-38.318,-9.292 -39.641,-9.649 -41.255,-9.649C-44.107,-9.649 -46.391,-8.061 -47.178,-5.746C-48.013,-6.287 -49.014,-6.582 -50.13,-6.582C-50.945,-6.582 -51.658,-6.442 -52.314,-6.143C-52.764,-6.404 -53.276,-6.546 -53.818,-6.546L-53.966,-6.545C-54.241,-6.533 -54.499,-6.479 -54.747,-6.405C-54.687,-6.659 -54.644,-6.919 -54.644,-7.191C-54.644,-9.05 -56.141,-10.563 -57.98,-10.563C-59.84,-10.563 -61.352,-9.05 -61.352,-7.191C-61.352,-6.413 -61.088,-5.697 -60.644,-5.126C-61.657,-6.089 -62.945,-6.582 -64.481,-6.582C-65.178,-6.582 -65.841,-6.433 -66.452,-6.142C-66.984,-6.453 -67.545,-6.545 -68.022,-6.545C-68.545,-6.545 -69.018,-6.409 -69.437,-6.186C-69.472,-8.291 -71.516,-9.649 -74.668,-9.649C-78.213,-9.649 -80.888,-7.195 -80.888,-3.94C-80.888,-1.965 -80.042,-0.773 -79.018,-0.023C-80.141,0.423 -80.961,1.543 -80.961,2.816C-80.961,4.131 -80.206,5.293 -78.918,5.936C-77.765,6.49 -76.422,6.771 -74.924,6.771C-73.482,6.771 -72.149,6.394 -71.102,5.715L-71.102,6.941C-71.102,8.79 -69.717,10.239 -67.949,10.239C-66.152,10.239 -64.796,8.821 -64.796,6.941L-64.796,6.618C-64.704,6.623 -64.611,6.625 -64.517,6.625C-62.918,6.625 -61.628,6.022 -60.658,5.088C-60.101,5.996 -59.137,6.588 -58.016,6.588C-57.194,6.588 -56.473,6.277 -55.924,5.77C-55.373,6.275 -54.658,6.588 -53.855,6.588C-52.561,6.588 -51.496,5.844 -51.001,4.718C-50.497,5.834 -49.426,6.588 -48.159,6.588C-47.284,6.588 -46.517,6.243 -45.957,5.675C-45.815,5.77 -45.664,5.857 -45.505,5.936C-44.353,6.49 -43.009,6.771 -41.512,6.771C-39.765,6.771 -38.179,6.218 -37.067,5.245C-36.498,6.06 -35.589,6.586 -34.537,6.586C-33.228,6.586 -32.153,5.825 -31.666,4.678C-31.17,5.816 -30.088,6.588 -28.805,6.588C-27.699,6.588 -26.763,6.041 -26.204,5.178C-25.103,6.11 -23.758,6.624 -22.414,6.624C-21.585,6.624 -20.923,6.449 -20.379,6.178C-19.93,6.442 -19.417,6.588 -18.873,6.588C-18.087,6.588 -17.395,6.302 -16.851,5.835C-16.31,6.301 -15.624,6.589 -14.856,6.589C-13.149,6.589 -11.855,5.289 -11.728,3.529C-11.575,3.78 -11.409,4.026 -11.216,4.265C-9.957,5.765 -8.07,6.625 -6.038,6.625C-4.582,6.625 -3.275,6.288 -2.152,5.623C-0.877,4.924 -0.146,3.863 -0.146,2.706C-0.146,2.261 -0.26,1.832 -0.46,1.447C-0.161,0.972 0,0.373 0,-0.325" style="fill:rgb(17,17,17);fill-rule:nonzero;"/>
        </g>
        <g transform="matrix(1,0,0,1,108.055,123.304)">
            <path d="M0,23.226L0,0.001C0,-0.712 -0.578,-1.29 -1.29,-1.29C-2.003,-1.29 -2.581,-0.712 -2.581,0.001L-2.581,23.226C-2.581,23.938 -2.003,24.516 -1.29,24.516C-0.578,24.516 0,23.938 0,23.226" style="fill:rgb(220,220,220);fill-rule:nonzero;"/>
        </g>
        <g transform="matrix(1,0,0,1,111.925,144.594)">
            <path d="M0,-19.354C-0.712,-19.354 -1.29,-18.776 -1.29,-18.064L-1.29,-1.29C-1.29,-0.578 -0.712,0 0,0C0.712,0 1.29,-0.578 1.29,-1.29L1.29,-18.064C1.29,-18.776 0.712,-19.354 0,-19.354" style="fill:rgb(220,220,220);fill-rule:nonzero;"/>
        </g>
        <g transform="matrix(1,0,0,1,117.087,141.369)">
            <path d="M0,-12.903C-0.712,-12.903 -1.29,-12.325 -1.29,-11.613L-1.29,-1.29C-1.29,-0.578 -0.712,0 0,0C0.712,0 1.29,-0.578 1.29,-1.29L1.29,-11.613C1.29,-12.325 0.712,-12.903 0,-12.903" style="fill:rgb(220,220,220);fill-rule:nonzero;"/>
        </g>
        <g transform="matrix(1,0,0,1,96.4419,128.466)">
            <path d="M0,12.903C0.712,12.903 1.29,12.325 1.29,11.613L1.29,1.29C1.29,0.578 0.712,0 0,0C-0.712,0 -1.29,0.578 -1.29,1.29L-1.29,11.613C-1.29,12.325 -0.712,12.903 0,12.903" style="fill:rgb(220,220,220);fill-rule:nonzero;"/>
        </g>
        <g transform="matrix(1,0,0,1,101.603,144.594)">
            <path d="M0,-19.354C-0.712,-19.354 -1.29,-18.776 -1.29,-18.064L-1.29,-1.29C-1.29,-0.578 -0.712,0 0,0C0.712,0 1.29,-0.578 1.29,-1.29L1.29,-18.064C1.29,-18.776 0.712,-19.354 0,-19.354" style="fill:rgb(220,220,220);fill-rule:nonzero;"/>
        </g>
        <g transform="matrix(1,0,0,1,132.419,129.742)">
            <path d="M0,10.187C-0.876,11.137 -2.264,11.502 -3.506,11.502C-4.601,11.502 -5.733,11.319 -6.719,10.845C-7.303,10.553 -7.74,10.041 -7.74,9.348C-7.74,8.728 -7.193,8.107 -6.535,8.107C-6.28,8.107 -6.061,8.143 -5.841,8.217L-4.855,8.582C-4.454,8.764 -3.979,8.873 -3.504,8.873C-2.774,8.873 -1.97,8.435 -1.97,7.595C-1.97,7.23 -2.116,6.901 -2.409,6.719C-2.993,6.354 -3.724,6.17 -4.381,5.988C-6.242,5.441 -7.667,4.819 -7.667,2.592C-7.667,0.146 -5.512,-1.315 -3.249,-1.315C-2.154,-1.315 0.183,-1.023 0.183,0.401C0.183,1.168 -0.365,1.788 -1.094,1.788C-1.24,1.788 -1.386,1.752 -1.533,1.715L-2.044,1.533C-2.445,1.387 -2.884,1.314 -3.285,1.314C-3.906,1.314 -4.672,1.605 -4.672,2.299C-4.672,2.92 -4.052,3.212 -3.541,3.359L-2.81,3.541C-0.839,4.089 1.023,4.928 1.023,7.192C1.023,8.252 0.73,9.384 0,10.187" style="fill:rgb(220,220,220);fill-rule:nonzero;"/>
        </g>
        <g transform="matrix(1,0,0,1,139.066,142.229)">
            <path d="M0,-8.252C-1.277,-8.252 -1.935,-7.083 -1.935,-5.951C-1.935,-4.82 -1.279,-3.615 0,-3.615C1.132,-3.615 1.752,-4.893 1.752,-5.951C1.752,-6.973 1.132,-8.252 0,-8.252M0.255,-1.131C-0.585,-1.131 -1.205,-1.422 -1.826,-1.935L-1.826,0.987C-1.826,1.79 -2.301,2.483 -3.177,2.483C-4.017,2.483 -4.528,1.789 -4.528,0.987L-4.528,-9.091C-4.528,-9.895 -4.163,-10.697 -3.25,-10.697C-2.52,-10.697 -2.191,-10.296 -1.935,-9.675C-1.351,-10.332 -0.621,-10.735 0.292,-10.735C1.314,-10.735 2.227,-10.443 2.957,-9.713C3.907,-8.8 4.418,-7.448 4.418,-6.135C4.418,-3.651 2.995,-1.131 0.255,-1.131" style="fill:rgb(220,220,220);fill-rule:nonzero;"/>
        </g>
        <g transform="matrix(1,0,0,1,145.822,127.513)">
            <path d="M0,13.547C-0.84,13.547 -1.351,12.817 -1.351,12.013L-1.351,5.515C-1.351,4.711 -0.876,4.018 0,4.018C0.84,4.018 1.351,4.712 1.351,5.515L1.351,12.014C1.351,12.854 0.876,13.547 0,13.547M0.036,3.141C-0.84,3.141 -1.534,2.41 -1.534,1.57C-1.534,0.731 -0.84,0 0.036,0C0.876,0 1.57,0.731 1.57,1.57C1.57,2.41 0.876,3.141 0.036,3.141" style="fill:rgb(220,220,220);fill-rule:nonzero;"/>
        </g>
        <g transform="matrix(1,0,0,1,155.679,131.494)">
            <path d="M0,9.566C-0.84,9.566 -1.351,8.836 -1.351,8.032L-1.351,3.979C-1.351,3.067 -1.862,2.299 -2.885,2.299C-3.725,2.299 -4.346,3.066 -4.346,3.869L-4.346,8.032C-4.346,8.872 -4.821,9.566 -5.697,9.566C-6.537,9.566 -7.048,8.836 -7.048,8.032L-7.048,1.606C-7.048,0.802 -6.609,0.072 -5.733,0.036L-5.659,0.036C-5.075,0.036 -4.637,0.437 -4.418,0.986C-3.688,0.291 -2.993,0 -1.972,0C-1.132,0 -0.292,0.219 0.365,0.804C1.169,1.498 1.351,2.338 1.351,3.36L1.351,8.033C1.351,8.873 0.877,9.566 0,9.566" style="fill:rgb(220,220,220);fill-rule:nonzero;"/>
        </g>
        <g transform="matrix(1,0,0,1,165.832,129.742)">
            <path d="M0,10.187C-0.876,11.137 -2.263,11.502 -3.506,11.502C-4.601,11.502 -5.733,11.319 -6.719,10.845C-7.303,10.553 -7.74,10.041 -7.74,9.348C-7.74,8.728 -7.192,8.107 -6.535,8.107C-6.28,8.107 -6.061,8.143 -5.841,8.217L-4.855,8.582C-4.454,8.764 -3.979,8.873 -3.504,8.873C-2.774,8.873 -1.97,8.435 -1.97,7.595C-1.97,7.23 -2.116,6.901 -2.409,6.719C-2.993,6.354 -3.724,6.17 -4.381,5.988C-6.242,5.441 -7.667,4.819 -7.667,2.592C-7.667,0.146 -5.512,-1.315 -3.249,-1.315C-2.154,-1.315 0.183,-1.023 0.183,0.401C0.183,1.168 -0.365,1.788 -1.094,1.788C-1.24,1.788 -1.386,1.752 -1.533,1.715L-2.044,1.533C-2.445,1.387 -2.884,1.314 -3.285,1.314C-3.906,1.314 -4.672,1.605 -4.672,2.299C-4.672,2.92 -4.052,3.212 -3.541,3.359L-2.81,3.541C-0.839,4.089 1.023,4.928 1.023,7.192C1.022,8.252 0.73,9.384 0,10.187" style="fill:rgb(220,220,220);fill-rule:nonzero;"/>
        </g>
        <g transform="matrix(1,0,0,1,175.033,127.512)">
            <path d="M0,13.548C-0.84,13.548 -1.351,12.818 -1.351,12.014L-1.351,8.107C-1.351,7.157 -1.752,6.281 -2.884,6.281C-3.76,6.281 -4.381,7.085 -4.381,7.924L-4.381,12.013C-4.381,12.853 -4.855,13.547 -5.731,13.547C-6.571,13.547 -7.082,12.816 -7.082,12.013L-7.082,1.497C-7.082,0.693 -6.608,0 -5.731,0C-4.892,0 -4.381,0.694 -4.381,1.497L-4.381,4.747C-3.65,4.308 -2.846,3.98 -1.97,3.98C-1.094,3.98 -0.218,4.236 0.44,4.857C1.17,5.551 1.352,6.391 1.352,7.377L1.352,12.014C1.351,12.855 0.877,13.548 0,13.548" style="fill:rgb(220,220,220);fill-rule:nonzero;"/>
        </g>
        <g transform="matrix(1,0,0,1,181.679,138.578)">
            <path d="M0,-4.601C-1.205,-4.601 -1.79,-3.396 -1.79,-2.337C-1.79,-1.241 -1.279,0 0,0C1.241,0 1.935,-1.095 1.935,-2.227C1.935,-3.468 1.388,-4.601 0,-4.601M3.286,2.483C2.63,2.483 2.191,1.972 2.009,1.387C1.352,2.154 0.768,2.519 -0.255,2.519C-1.205,2.519 -2.154,2.118 -2.885,1.497C-3.981,0.511 -4.455,-0.876 -4.455,-2.3C-4.455,-3.687 -4.054,-4.893 -3.068,-5.878C-2.338,-6.609 -1.352,-7.12 -0.293,-7.12C0.693,-7.12 1.314,-6.755 2.008,-6.06C2.263,-6.609 2.664,-7.046 3.323,-7.046C4.089,-7.046 4.673,-6.425 4.673,-5.659L4.673,0.878C4.673,1.716 4.163,2.483 3.286,2.483" style="fill:rgb(220,220,220);fill-rule:nonzero;"/>
        </g>
        <g transform="matrix(1,0,0,1,192.159,138.469)">
            <path d="M0,-4.383C-0.475,-4.2 -0.986,-4.018 -1.424,-3.689C-1.754,-3.433 -1.826,-3.032 -1.826,-2.593L-1.826,1.058C-1.826,1.898 -2.301,2.592 -3.177,2.592C-4.017,2.592 -4.528,1.862 -4.528,1.058L-4.528,-5.405C-4.528,-5.77 -4.454,-6.171 -4.199,-6.464C-3.943,-6.756 -3.578,-6.939 -3.213,-6.939C-2.556,-6.939 -2.117,-6.574 -1.826,-5.989C-1.351,-6.464 -0.766,-6.975 -0.036,-6.975C0.73,-6.975 1.388,-6.428 1.388,-5.698C1.387,-4.82 0.694,-4.602 0,-4.383" style="fill:rgb(220,220,220);fill-rule:nonzero;"/>
        </g>
        <g transform="matrix(1,0,0,1,197.582,138.907)">
            <path d="M0,-5.258C-1.022,-5.258 -1.497,-4.454 -1.79,-3.578L1.826,-3.578C1.57,-4.492 1.095,-5.258 0,-5.258M3.286,-1.754L-1.716,-1.754C-1.533,-1.279 -1.315,-0.877 -0.912,-0.585C-0.547,-0.293 -0.108,-0.146 0.366,-0.146C0.877,-0.146 1.388,-0.292 1.863,-0.511L2.63,-0.912C2.775,-0.986 2.959,-1.022 3.141,-1.022L3.177,-1.022C3.761,-1.022 4.308,-0.474 4.308,0.073C4.308,0.694 3.688,1.169 3.213,1.424C2.299,1.973 1.277,2.191 0.218,2.191C-1.243,2.191 -2.63,1.606 -3.579,0.475C-4.346,-0.475 -4.601,-1.497 -4.601,-2.666C-4.601,-5.258 -2.593,-7.449 0.036,-7.449C2.556,-7.449 4.454,-5.404 4.454,-2.957C4.454,-2.119 4.125,-1.754 3.286,-1.754" style="fill:rgb(220,220,220);fill-rule:nonzero;"/>
        </g>
    </g>
</svg>
