<?xml version="1.0" encoding="utf-8"?>
<!-- Generator: Adobe Illustrator 25.2.3, SVG Export Plug-In . SVG Version: 6.00 Build 0)  -->
<svg version="1.1" id="Ebene_1" xmlns="http://www.w3.org/2000/svg" xmlns:xlink="http://www.w3.org/1999/xlink" x="0px" y="0px"
	 viewBox="0 0 1969.5 1676.6" style="enable-background:new 0 0 1969.5 1676.6;" xml:space="preserve">
<style type="text/css">
	.st0{fill:#12A2C9;}
	.st1{fill:#FFFFFF;}
	.st2{font-family:'QTVagaRound-Bold';}
	.st3{font-size:125px;}
	.st4{letter-spacing:62;}
	.st5{font-size:750px;}
	.st6{letter-spacing:-37;}
	.st7{fill:#010010;}
	.st8{font-size:165.8228px;}
	.st9{letter-spacing:16;}
</style>
<g id="Winter">
	<g>
		<path class="st0" d="M1399,76.9c364.9,172.5,611.4,653.4,529.6,993.9c-82.9,341.6-494.2,542.9-890,591.5
			c-395.8,50.9-775-52-934.2-326.2C-53.8,1063.1,7,617.5,280.1,326.7C552.1,37.1,1034.1-95.6,1399,76.9z"/>
	</g>
	<text transform="matrix(1 0 0 1 408.8881 145.3295)"><tspan x="0" y="0" class="st1 st2 st3 st4">SPINSHAR</tspan><tspan x="1089.5" y="0" class="st1 st2 st3">E</tspan></text>
	<text transform="matrix(1 0 0 1 -1.220703e-04 749.2299)"><tspan x="0" y="0" class="st1 st2 st5 st6">SPEEN</tspan><tspan x="108.7" y="550" class="st1 st2 st5 st6">OPEN</tspan></text>
	<g>
		<path class="st1" d="M1672.1,1676.6H297.4c-72.3,0-131-58.7-131-131v0c0-72.3,58.7-131,131-131h1374.7c72.3,0,131,58.7,131,131v0
			C1803.1,1617.9,1744.4,1676.6,1672.1,1676.6z"/>
		<text transform="matrix(1 0 0 1 393.6088 1599.6069)" class="st7 st2 st8 st9">WINTER 2023</text>
	</g>
	<g>
		<polygon class="st0" points="143.8,807.6 80.8,1040.6 112.3,1236.7 238.8,1350.6 544.8,1342.6 643.8,1170.6 643.8,966.1 
			553.9,807.6 389.4,749.2 		"/>
	</g>
	<g id="DJRound_4_">
		<g>
			<circle class="st1" cx="360.8" cy="1059.6" r="38.6"/>
		</g>
		<path class="st1" d="M360.8,796.6c-145.3,0-263,117.7-263,263s117.7,263,263,263s263-117.7,263-263S506,796.6,360.8,796.6z
			 M218.1,916.9c-9.4,9.4-18,19.8-25.4,30.8c-7.5,11.1-14,23-19.2,35.3c-5.3,12.5-9.4,25.7-12.1,39c-1.2,6-6.5,10.1-12.4,10.1
			c-0.8,0-1.7-0.1-2.5-0.3c-6.8-1.4-11.3-8.1-9.9-14.9c3.1-15,7.6-29.7,13.6-43.8c5.8-13.8,13.1-27.2,21.5-39.6
			c8.3-12.4,17.9-24,28.5-34.5c10.6-10.6,22.2-20.1,34.5-28.5c12.5-8.4,25.8-15.7,39.6-21.5c14.1-6,28.8-10.5,43.8-13.6
			c15.4-3.1,31.2-4.7,47-4.7c7,0,12.6,5.7,12.6,12.6c0,7-5.7,12.6-12.6,12.6c-14.1,0-28.2,1.4-41.9,4.2c-13.3,2.7-26.5,6.8-39,12.1
			c-12.3,5.2-24.2,11.7-35.3,19.2C237.9,898.9,227.5,907.5,218.1,916.9z M360.8,1150c-49.9,0-90.4-40.5-90.4-90.4
			c0-49.9,40.5-90.4,90.4-90.4s90.4,40.5,90.4,90.4C451.2,1109.5,410.7,1150,360.8,1150z"/>
	</g>
</g>
</svg>
