<?xml version="1.0" encoding="utf-8"?>
<!-- Generator: Adobe Illustrator 25.2.0, SVG Export Plug-In . SVG Version: 6.00 Build 0)  -->
<svg version="1.1" id="Ebene_1" xmlns="http://www.w3.org/2000/svg" xmlns:xlink="http://www.w3.org/1999/xlink" x="0px" y="0px"
	 viewBox="0 0 1161.9 202.4" style="enable-background:new 0 0 1161.9 202.4;" xml:space="preserve">
<style type="text/css">
	.st0{fill:#FFFFFF;}
	.st1{fill:#25A7FB;}
	.st2{fill:#FB1357;}
	.st3{fill:#A3D3E3;}
	.st4{opacity:0.5;fill:#666766;enable-background:new    ;}
	.st5{opacity:0.45;fill:#5B7882;enable-background:new    ;}
	.st6{fill:#3DFB84;}
</style>
<g>
	<path class="st0" d="M322.8,143.7c-0.3,2.8-1.6,5-3.9,6.5c-2.3,1.5-5.1,2.3-8.3,2.3c-2.2,0-4.1-0.9-5.7-2.7
		c-1.6-1.8-2.7-3.9-3.4-6.4l-2.8-10.5h-36.2l-2.3,8.2c-0.9,3.1-2,5.6-3.3,7.4c-1.8,2.6-3.9,4-6.4,4c-3.1,0-5.9-0.8-8.3-2.3
		c-2.4-1.5-3.8-3.7-4.2-6.5l-0.3-1.1c0-0.7,0.1-1.5,0.4-2.6c0.2-1.1,0.5-2.1,0.8-3L264.5,67c1.3-3.7,3.4-6.6,6.2-8.8
		c2.8-2.2,6.1-3.3,9.9-3.3c3.7,0,6.9,1.1,9.7,3.3c2.8,2.2,4.8,5.2,6.2,8.8l25.5,69.9c0.6,1.4,0.8,3.1,0.8,5.1V143.7z M292.2,113.6
		l-11.6-35.8l-11.3,35.8H292.2z"/>
	<path class="st0" d="M433.5,140.3c0,3.4-0.9,6.2-2.8,8.5c-1.8,2.3-4.4,3.4-7.7,3.4c-3.1,0-5.6-1.2-7.4-3.5
		c-1.8-2.3-2.8-5.1-2.8-8.4v-33.7c0-3.2-1-5.8-3.1-7.8c-2.1-2-4.7-3-7.9-3c-3,0-5.6,1-7.6,3.1c-2.1,2.1-3.1,4.6-3.1,7.6v33.7
		c0,3.4-0.9,6.2-2.7,8.5c-1.8,2.3-4.3,3.4-7.5,3.4c-3.3,0-5.9-1.2-7.7-3.5c-1.8-2.3-2.8-5.1-2.8-8.4v-31.7c0-3.8-0.8-6.7-2.4-8.9
		c-1.9-2.5-4.7-3.8-8.3-3.8c-3,0-5.6,1-7.6,3c-2.1,2-3.1,4.6-3.1,7.8v33.7c0,3.4-0.9,6.2-2.8,8.5c-1.8,2.3-4.4,3.4-7.7,3.4
		c-3.1,0-5.6-1.2-7.6-3.5c-1.9-2.3-2.9-5.1-2.9-8.5V90c0-3.1,0.8-5.9,2.5-8.3c1.7-2.4,4.1-3.6,7.1-3.6h0.6c2.1,0,4.1,0.7,5.9,2.1
		c1.5,1.1,2.9,2.7,4.2,4.7c5.3-4.5,11.5-6.8,18.7-6.8c2.5,0,5,0.3,7.3,0.8c2.3,0.5,4.5,1.4,6.6,2.6c1.3,0.8,2.4,1.5,3.1,2.3
		c0.8,0.8,1.6,1.9,2.5,3.4c3.7-3,7.2-5.3,10.7-6.8c3.4-1.5,7.3-2.3,11.7-2.3c6.9,0,12.7,2.3,17.5,6.9c4.8,4.6,7.1,10.2,7.1,16.9
		V140.3z"/>
	<path class="st0" d="M509.9,115.2c0,5.1-0.7,9.8-2.2,14.2c-1.5,4.3-3.8,8.3-7,11.9c-3.2,3.6-7,6.4-11.5,8.3c-4.4,2-9.1,3-13.9,3
		c-10.2,0-18.8-3.8-25.8-11.3c-3.1-3.3-5.4-7.3-7-11.9c-1.6-4.6-2.3-9.3-2.3-14.2c0-5.1,0.7-9.8,2.2-14.1c1.5-4.3,3.9-8.3,7.2-11.8
		c3.3-3.5,7.2-6.3,11.6-8.3c4.4-2,9-3,13.8-3c4.7,0,9.3,1,13.9,3c4.5,2,8.4,4.7,11.5,8.1c3.2,3.4,5.5,7.4,7.1,12
		C509.1,105.6,509.9,110.3,509.9,115.2z M489.5,115.2c0-4.6-1.3-8.6-3.8-12.1c-2.8-3.9-6.5-5.8-10.9-5.8c-4.3,0-7.8,2-10.5,6
		c-2.3,3.4-3.4,7.4-3.4,12c0,4.7,1.2,8.8,3.6,12.5c2.4,3.7,5.8,5.5,10.3,5.5c4.4,0,8.1-1.9,10.9-5.7
		C488.2,124,489.5,119.9,489.5,115.2z"/>
	<path class="st0" d="M581.5,140.3c0,3.4-0.9,6.2-2.8,8.5c-1.8,2.3-4.4,3.4-7.7,3.4c-3.1,0-5.6-1.2-7.6-3.5
		c-1.9-2.3-2.9-5.1-2.9-8.4v-31.4c0-3.8-1-6.9-3-9.3c-2-2.5-5-3.7-8.8-3.7c-3.2,0-5.9,1.2-8.1,3.7c-2.2,2.5-3.3,5.3-3.3,8.5v32.3
		c0,3.4-0.9,6.2-2.8,8.5c-1.8,2.3-4.4,3.4-7.7,3.4c-3.1,0-5.6-1.2-7.6-3.5c-1.9-2.3-2.9-5.1-2.9-8.5v-50c0-3.3,0.9-6.2,2.7-8.6
		c1.8-2.4,4.3-3.6,7.5-3.6h0.6c2.2,0,4.1,0.7,5.7,2.1c1.6,1.4,2.9,3.2,3.9,5.6c5.4-5.1,11.7-7.6,19-7.6c3.5,0,6.8,0.5,9.8,1.5
		c3.1,1,5.9,2.6,8.6,5c2.6,2.3,4.5,5.1,5.7,8.3s1.7,7,1.7,11.2V140.3z"/>
	<path class="st0" d="M657.6,144.6c0,11.3-3.2,20.2-9.6,26.6c-6.4,6.4-15.3,9.6-26.6,9.6c-4.9,0-9.4-0.4-13.5-1.3
		c-4.1-0.9-8.1-2.4-12-4.6c-2-1-3.5-2.3-4.6-3.9c-1.1-1.6-1.6-3.4-1.6-5.4c0-2.5,0.8-4.6,2.5-6.4c1.7-1.8,3.7-2.7,5.9-2.7l1.1-0.3
		c0.4,0,0.9,0.1,1.6,0.4c0.7,0.2,1.2,0.4,1.5,0.5l5.9,2c4.2,1.5,8.3,2.3,12.4,2.3c3.2,0,6-0.5,8.6-1.6c2.5-1,4.5-2.8,5.8-5.3
		c0.8-1.6,1.4-3.4,1.8-5.3c0.3-1.9,0.5-4.1,0.5-6.3c-2.5,3.3-5,5.7-7.5,7.3s-5.7,2.3-9.6,2.3c-9,0-16.6-3.4-22.8-10.2
		c-3.2-3.6-5.5-7.8-6.9-12.7c-1.4-4.9-2.1-10-2.1-15.4c0-5.3,1-10.3,2.9-15.1c1.9-4.8,4.8-9,8.7-12.6c2.5-2.5,5.6-4.6,9.2-6.3
		c3.6-1.6,7.1-2.5,10.6-2.5c3.9,0,7.1,0.6,9.7,1.9c2.6,1.3,5.3,3.4,8.1,6.3c1.3-2.4,2.6-4.1,4-5.2c1.9-1.6,4-2.4,6.2-2.4
		c3.1,0,5.5,1.1,7.3,3.3c1.7,2.2,2.6,4.9,2.6,8.1V144.6z M637.2,115.2c0-4.8-1.2-8.9-3.7-12.3c-2.8-3.8-6.6-5.7-11.3-5.7
		c-4.1,0-7.2,1.8-9.6,5.3c-2.3,3.5-3.5,7.5-3.5,11.8c0,3,0.3,5.7,0.8,8.1c0.6,2.3,1.6,4.4,3.1,6.2c2.7,3,6,4.6,9.9,4.6
		c4.4,0,8-1.9,10.6-5.8C636,123.8,637.2,119.7,637.2,115.2z"/>
	<path class="st0" d="M749.3,109.8c0,6-0.4,10.9-1.3,14.6c-1.1,5-3.3,9.5-6.4,13.4c-3.9,4.9-8.8,8.8-14.8,11.6
		c-6,2.8-12.2,4.2-18.6,4.2c-11.3,0-20.9-3.5-28.7-10.6c-8.2-7.4-12.3-16.6-12.3-27.9V67.3c0-3.4,0.9-6.2,2.8-8.5
		c1.9-2.3,4.6-3.4,8-3.4c3.5,0,6.2,1.1,8,3.3c1.9,2.2,2.8,5,2.8,8.6V112c0,2.9,0.4,5.6,1.1,8c0.7,2.4,1.9,4.6,3.6,6.7
		c1.7,2.1,3.9,3.7,6.6,4.8s5.4,1.7,8.3,1.7c6.5,0,11.6-2.5,15.3-7.4c1.6-2.3,2.7-4.7,3.2-7.2c0.5-2.5,0.8-5.5,0.8-8.9V67.3
		c0-3.3,1-6.1,2.9-8.4c1.9-2.3,4.5-3.5,7.8-3.5c3.5,0,6.2,1.1,8.1,3.3c1.9,2.2,2.9,5.1,2.9,8.6V109.8z"/>
	<path class="st0" d="M811.3,128.7c0,7-2.6,12.8-7.9,17.5c-2.4,2-5.3,3.5-8.7,4.6c-3.4,1.1-6.9,1.6-10.3,1.6
		c-5.8,0-11.3-1.1-16.7-3.4c-7-2.9-10.5-6.9-10.5-11.9c0-2.2,0.9-4.2,2.6-6.2c1.7-1.9,3.7-2.9,5.9-2.9c1.6,0,2.8,0.1,3.7,0.4
		c0.8,0.3,3.2,1.4,7.1,3.3c1.6,0.8,3,1.3,4.3,1.7c1.3,0.4,2.6,0.6,3.9,0.6c1.4,0,2.8-0.4,4.2-1.3c1.4-0.8,2.1-1.9,2.1-3.3
		c0-1.7-0.9-3.1-2.8-4.2c-0.8-0.5-2.5-1.2-5.1-2.3l-5.7-2c-5.8-2.2-10-4.5-12.6-7.1c-3.7-3.5-5.5-7.8-5.5-13c0-5.8,2.1-10.8,6.2-15
		c5.2-5.5,11.8-8.2,19.8-8.2c3.5,0,6.8,0.4,9.8,1.2c3.1,0.8,5.9,2.1,8.6,3.9c1.7,1.2,3.1,2.6,4.2,4.2c1.1,1.6,1.7,3.2,1.7,4.9
		c0,2.2-0.8,4.3-2.5,6.4c-1.7,2.1-3.6,3.2-5.7,3.2l-0.3-0.3c-1.6-0.2-3.3-0.6-4.9-1.3c-1.7-0.7-2.8-1.2-3.4-1.5
		c-2.4-0.9-4.2-1.6-5.3-1.8c-1.1-0.3-2.2-0.4-3.3-0.4c-1.4,0.2-2.6,0.5-3.6,1c-1,0.5-1.5,1.3-1.6,2.4v0.3c0,1.7,1.5,3.3,4.5,4.8
		c1.7,0.8,4,1.7,6.8,2.5c3.8,1.5,6.6,2.7,8.3,3.7c3,1.6,5.5,3.4,7.5,5.4C809.6,120,811.3,124.1,811.3,128.7z"/>
	<path class="st0" d="M884.3,120.2c0,4.3-0.7,8.6-2,12.7c-1.3,4.1-3.3,7.6-5.9,10.5c-3.1,3.4-7.1,5.9-12.1,7.6
		c-5,1.7-10,2.5-15.1,2.5c-4.5,0-8.9-0.4-13-1.2c-4.2-0.8-8.1-2.1-11.9-3.9c-2.5-1.2-4.4-2.8-5.8-4.7c-1.4-1.9-2.1-4.2-2.1-6.9
		c0-2.5,0.9-4.8,2.8-6.7c1.8-1.9,4-2.9,6.6-2.9c1.9,0,3.7,0.3,5.4,0.8l7.6,2.8c3.3,1.5,6.8,2.3,10.5,2.3c3.2,0,5.9-0.8,8.1-2.4
		c2.5-1.9,3.8-4.4,3.8-7.5c0-3.1-1.1-5.4-3.3-6.7c-2.2-1.4-4.7-2.5-7.5-3.5c-0.7-0.2-3.3-0.9-7.9-2.3c-8.6-2.5-14.6-5.3-18.1-8.2
		c-4.9-4.1-7.4-10.2-7.4-18.1c0-9.1,3.5-16.5,10.5-22.2c6.6-5.4,14.5-8.1,23.8-8.1c6.3,0,11.8,0.8,16.4,2.4
		c6.8,2.4,10.2,6,10.2,10.9c0,3-0.9,5.6-2.8,7.6c-1.9,2.1-4.2,3.1-7.1,3.1c-0.8,0-1.9-0.2-3.4-0.6l-4-1.4c-3.1-1.1-6.3-1.7-9.6-1.7
		c-2.8,0-5.3,0.6-7.5,1.9c-2.2,1.3-3.3,3.2-3.3,5.7c0,2.2,0.9,4,2.8,5.5c1.3,1,3.3,1.9,5.9,2.7l5.7,1.4c9.2,2.5,16.1,5.6,20.5,9.1
		C881.2,105.8,884.3,112.2,884.3,120.2z"/>
	<path class="st0" d="M958.1,140.3c0,3.4-0.9,6.2-2.8,8.5c-1.8,2.3-4.4,3.4-7.7,3.4c-3.1,0-5.6-1.2-7.6-3.5
		c-1.9-2.3-2.9-5.1-2.9-8.4v-30.3c0-4.1-0.8-7.4-2.5-9.8c-2.1-2.9-5.2-4.4-9.3-4.4c-3.4,0-6.2,1.3-8.3,3.7c-2.2,2.5-3.3,5.5-3.3,9
		v31.7c0,3.4-0.9,6.2-2.8,8.5c-1.8,2.3-4.4,3.4-7.7,3.4c-3.1,0-5.6-1.2-7.6-3.5c-1.9-2.3-2.9-5.1-2.9-8.4V58.8
		c0-3.2,0.9-5.9,2.8-8.2c1.9-2.3,4.4-3.4,7.6-3.4c3.1,0,5.6,1.1,7.6,3.3c1.9,2.2,2.9,5,2.9,8.3V84c3.1-1.9,6.2-3.3,9.3-4.4
		c3.1-1,6.2-1.6,9.4-1.6c3.6,0,7,0.5,10.2,1.6c3.2,1.1,6.1,2.9,8.6,5.3c2.5,2.5,4.3,5.3,5.4,8.4c1,3.2,1.6,6.8,1.6,11V140.3z"/>
	<path class="st0" d="M1035.4,140c0,3.4-1,6.3-2.9,8.8c-1.9,2.5-4.6,3.7-7.9,3.7c-2.5,0-4.5-0.8-6.2-2.5c-1.7-1.7-2.9-3.8-3.7-6.3
		c-5,5.9-10.8,8.8-17.5,8.8c-3.6,0-7.1-0.7-10.7-2.1c-3.5-1.4-6.8-3.3-9.7-5.8c-4.1-3.6-7.1-8-9.1-13.2c-2-5.2-3-10.6-3-16.3
		c0-5.7,0.8-10.7,2.5-15.2c1.6-4.5,4.4-8.7,8.3-12.5c2.9-2.9,6.2-5.3,10-7c3.7-1.7,7.6-2.6,11.5-2.6c6.4,0,12.4,2.7,17.8,8.2
		c1.1-2.4,2.4-4.1,3.8-5.4c1.8-1.5,3.9-2.3,6.4-2.3c3,0,5.5,1,7.5,3.1c2,2.1,3,4.6,3,7.7V140z M1014.2,115.8c0-5.3-1.1-9.6-3.4-12.8
		c-2.6-3.8-6.5-5.7-11.6-5.7c-4.3,0-7.8,1.9-10.5,5.7c-2.3,3.3-3.4,7.3-3.4,11.9c0,4.9,1,9,3.1,12.2c2.5,4,6.1,6,10.8,6
		c4.6,0,8.3-1.7,11-5.1C1012.8,124.6,1014.2,120.5,1014.2,115.8z"/>
	<path class="st0" d="M1091.1,88c0,3-1.1,5.3-3.3,6.9c-1.4,1-3.9,2.1-7.5,3.3c-2.4,0.9-4.2,1.7-5.5,2.3c-2.4,1-4.2,2.1-5.4,3
		c-1.3,1-2.1,2.1-2.5,3.5c-0.4,1.3-0.6,3-0.6,5.1v28.3c0,3.4-0.9,6.2-2.8,8.5c-1.8,2.3-4.4,3.4-7.7,3.4c-3.1,0-5.6-1.2-7.6-3.5
		c-1.9-2.3-2.9-5.1-2.9-8.5V90c0-1.8,0.2-3.3,0.5-4.6c0.3-1.3,1-2.5,2.1-3.6c2.2-2.5,4.7-3.7,7.6-3.7c2.5,0,4.6,0.6,6.4,1.9
		c1.8,1.3,3.3,3.1,4.4,5.4c2.5-2.5,4.5-4.2,6.1-5.2c2.5-1.4,5.1-2.1,7.8-2.1c3,0,5.6,0.9,7.8,2.8C1090.1,82.8,1091.1,85.2,1091.1,88
		z"/>
	<path class="st0" d="M1161.9,112.6c0,3.3-0.7,5.7-2.1,7.1c-1.4,1.5-3.7,2.2-7,2.2h-38.8c0.6,1.5,1.1,2.8,1.7,3.8
		c1.1,2.2,2.6,3.9,4.5,5.2c2.8,2.3,6.1,3.4,9.9,3.4c2.4,0,4.8-0.4,7.4-1.1c1.1-0.3,2.5-0.8,4.2-1.7l5.9-3.1c1.1-0.6,2.5-0.8,4-0.8
		c2.5,0,4.6,0.8,6.4,2.5c1.8,1.7,2.7,3.7,2.7,5.9c0,2.2-0.9,4.2-2.8,6.2c-1.5,1.6-3.4,3-5.7,4.2c-3.3,2-6.9,3.5-10.9,4.5
		c-4,1-8.1,1.5-12.3,1.5c-5.8,0-11.3-1.1-16.3-3.3c-5-2.2-9.4-5.5-13.1-10c-2.9-3.6-5-7.3-6.2-11.2c-1.2-3.9-1.8-8.3-1.8-13.2
		c0-10.1,3.5-18.8,10.4-26.1c6.9-7.3,15.4-11,25.5-11c9.7,0,17.9,3.4,24.4,10.1C1158.6,94.7,1161.9,102.9,1161.9,112.6z
		 M1141.5,107.8c-1.1-4.1-2.7-7.2-4.5-9.2c-2.4-2.5-5.6-3.8-9.7-3.8c-3.6,0-6.6,1.3-9.1,4c-1.9,2.1-3.5,5.1-4.8,9.1H1141.5z"/>
</g>
<g>
	<g>
		<path class="st1" d="M70.5,87.2c19.9,0,36.1,16.2,36.1,36.1s-16.2,36.1-36.1,36.1s-36.1-16.2-36.1-36.1S50.6,87.2,70.5,87.2
			 M70.5,67.2c-30.9,0-56.1,25.2-56.1,56.1s25.2,56.1,56.1,56.1s56.1-25.2,56.1-56.1S101.5,67.2,70.5,67.2L70.5,67.2z"/>
	</g>
	<g>
		<g>
			<path d="M58,189.9c-8.8,0-17.2-4.6-21.6-11.8c-3-4.9-3.8-10.1-4.5-15.5c-0.4-3.1-0.8-6.3-1.1-9.7c-8.1-0.1-14.6-2.3-19.3-6.7
				c-7.4-6.8-8.6-16.5-8.9-25.9c-0.4-15.7,0.2-31.7,0.7-45.8c0.1-4.1,0.4-11,5.1-16.2c5.5-6.1,13.1-6.1,18.7-6.2l0.5,0
				c0.9,0,1.7,0,2.5,0c1.5-11.1,4.1-19.7,8.3-27.2C42.3,18,48,12,54.6,8.1c6-3.6,12.5-5.6,18.9-5.6c1.5,0,3.1,0.1,4.6,0.3
				C78.6,2.9,79.2,3,79.9,3c0.8,0,1.7-0.1,2.7-0.1l0.3,0c1.1-0.1,2.2-0.1,3.4-0.1c2.3,0,4.3,0.2,6.3,0.8c6.6,1.7,14.2,3.9,21.2,8.2
				c4,2.5,8.1,6.5,11.2,11.1c1.8,2.5,4,6.3,5.3,10.8c0.9,0.6,1.8,1.1,2.6,1.7c9.3,6.6,14.8,15.3,15.6,24.3c0.6,7.2-2,14.7-7.1,20.8
				c1.8,25.6,0.5,51.5-3.9,77c-1,5.7-2.4,12.3-6.7,17.7c-4,5-10,8.1-16.8,8.8c-1,0.1-1.8,0.1-2.5,0.1c-6.3,0-12.3-2.2-16.9-6.1
				c-6.5-5.6-10-14.7-9.3-23.7c-0.5,0-0.9,0-1.3,0c0,0.7,0.1,1.4,0.1,2.1c0.3,4.1,0.6,8.6-0.4,13.4c-2.3,10.2-10.8,18.2-21,20.1
				C61,189.8,59.5,189.9,58,189.9z"/>
			<path class="st0" d="M73.5,5c1.4,0,2.8,0.1,4.3,0.3c0.7,0.1,1.5,0.1,2.2,0.1c0.9,0,1.8-0.1,2.8-0.1c1.1-0.1,2.3-0.1,3.5-0.1
				c1.7,0,3.6,0.2,5.7,0.7c6.4,1.7,13.8,3.8,20.5,7.9c3.7,2.3,7.5,6.1,10.5,10.4c1.9,2.7,4.1,6.6,5.2,10.9c1.1,0.7,2.2,1.4,3.3,2.2
				c8.7,6.2,13.8,14.2,14.5,22.4c0.5,7-2.1,14.1-7.3,19.8h0.1c1.9,25.8,0.6,51.8-3.8,77.3c-1,5.7-2.3,11.6-6.2,16.6
				c-3.6,4.5-9,7.3-15.1,7.8c-0.8,0.1-1.5,0.1-2.3,0.1c-5.7,0-11.1-1.9-15.2-5.5c-6.8-5.8-9.7-15.4-8.1-24.4c-2.5,0-4.8,0.1-6.8,0.1
				c0,1.5,0.1,3.1,0.3,4.8c0.3,3.8,0.6,8.2-0.4,12.6c-2.1,9.2-9.7,16.5-19,18.2c-1.4,0.2-2.7,0.4-4.1,0.4c-7.8,0-15.4-4-19.4-10.6
				c-2.7-4.5-3.5-9.4-4.2-14.5c-0.5-4-1-8-1.4-11.9c-0.6,0-1.3,0-1.9,0c-6.1,0-12.8-1.2-18-6c-6.7-6.2-7.8-15.3-8.1-24.2
				c-0.4-15.3,0.1-30.7,0.7-45.7c0.1-4,0.4-10,4.5-14.6c4.8-5.3,11.5-5.3,16.9-5.4c1.8,0,3.6,0,5.2-0.2c1.1-9.5,3.3-19.4,8.2-28.3
				c3.7-6.5,9.1-12.2,15.3-15.9C61.5,6.8,67.5,5,73.5,5 M73.5,0C73.5,0,73.5,0,73.5,0c-6.8,0-13.8,2.1-20.2,5.9
				c-6.9,4.2-12.9,10.5-17,17.8c-4.1,7.2-6.7,15.5-8.3,25.9c-0.1,0-0.2,0-0.3,0l-0.5,0c-5.7,0-14.3,0.1-20.6,7
				C1.2,62.5,1,70,0.8,74.4c-0.5,14.2-1.1,30.2-0.7,46c0.2,9.5,1.6,20.2,9.7,27.7c4.7,4.4,11,6.8,18.8,7.3c0.3,2.6,0.6,5.2,0.9,7.6
				c0.7,5.7,1.6,11.2,4.9,16.5c4.9,8,13.9,13,23.7,13c1.6,0,3.3-0.1,4.9-0.4c11-2,20.1-10.6,22.8-21.5c1.7,3.4,4.1,6.5,7,9.1
				c5,4.3,11.6,6.7,18.5,6.7c0.8,0,1.7,0,2.7-0.1l0,0l0,0c7.5-0.7,14.1-4.1,18.6-9.7c4.7-5.9,6.2-12.8,7.2-18.9
				c4.4-25.3,5.7-51,4-76.6c5.1-6.4,7.6-14.3,7-21.8c-0.8-9.8-6.7-19-16.6-26.1c-0.6-0.5-1.3-0.9-1.9-1.3c-1.4-4.3-3.6-8.1-5.4-10.6
				c-3.4-4.8-7.7-9.1-11.9-11.7C107.8,5,100,2.8,93.2,1c-2.2-0.6-4.4-0.9-7-0.9c-1.3,0-2.5,0.1-3.6,0.1l-0.3,0
				c-0.9,0.1-1.8,0.1-2.5,0.1c-0.6,0-1,0-1.5-0.1C76.8,0.1,75.1,0,73.5,0L73.5,0L73.5,0z"/>
		</g>
		<path class="st2" d="M128.2,98.2c0-3.5-0.2-7-0.3-10.6c-4.1,2-8.8,3.7-14.4,4.9c-5.3,1.2-10.2,1.8-14.7,1.8c-4.2,0-8-0.5-11.6-1.6
			c-11.3-3.3-20.7-12.2-24.5-23.3c-3-8.6-2.5-18.4,1.2-26.9c4.1-9.2,14.1-11.9,20.1-13.5c9.3-2.5,19-2.6,28.2-0.4
			c-1.8-2.2-3.8-4-5.7-5.2c-5.3-3.3-11.7-5.1-17.3-6.6c-1.8-0.5-3.5-0.3-5.6-0.2c-2.1,0.1-4.5,0.3-7.4-0.1
			C65.2,15,55.2,23.3,50.5,31.7c-0.2,0.4-0.5,0.9-0.7,1.3c-5.2,10-6.4,22-7.1,33.4c-2,31.4-1,63.2,3,94.5c0.5,4,1,7.5,2.6,10.1
			c2.2,3.7,7.3,5.8,11.8,5c4.7-0.9,8.9-4.9,10-9.6c0.6-2.7,0.4-5.9,0.1-9.2c-0.3-3.8-0.6-8.1,0.4-12.5c0.6-2.5,2.7-4.3,5.3-4.4H76
			c0.1,0,0.1,0,0.2,0c4.6,0,27.3-0.3,38.3-1.2c0,0-5.6,10.7-14.8,12.1c-1.9,5.7-0.5,12.5,3.7,16.2c2.3,2,5.7,3,9.1,2.7
			c3-0.3,5.7-1.6,7.3-3.6c2.3-2.9,3.1-7,3.9-11.4C127,136.2,128.5,117.1,128.2,98.2z M30.7,78.1c0.2-4.1,0.4-8.1,0.6-12.2
			C29.9,66,28.6,66,27.2,66c-4.4,0-7.3,0.2-8.6,1.6c-1.4,1.5-1.5,5-1.6,7.4c0,1.3-0.1,2.5-0.1,3.8c-0.5,13.6-0.9,27.5-0.5,41.2
			c0.2,6.4,0.8,12.8,4.4,16.1c2.7,2.5,6.8,3.1,11.2,3C30.4,118.8,30,98.4,30.7,78.1z"/>
		<path class="st3" d="M134.5,63.1c-0.5,3.9-2.9,8-6.7,11.1c-4,3.3-9.4,5.6-16.9,7.3c-8.5,1.9-15.1,2-20.7,0.4
			c-7.8-2.3-14.3-8.4-16.9-16.1c-2.1-5.9-1.7-12.8,0.8-18.6c0.3-0.6,0.6-1.2,1.2-1.9c1.4-1.6,4.3-3.4,11.5-5.3c4-1.1,8-1.6,12.1-1.6
			c9.3,0,18.5,2.8,25.9,8.1c8,5.7,9.6,11.3,9.8,14.1C134.7,61.4,134.7,62.3,134.5,63.1z"/>
		<path class="st4" d="M32,139.1c-4.4,0.1-8.5-0.5-11.2-3c-3.6-3.3-4.3-9.7-4.4-16.1c-0.4-13.7,0.1-27.6,0.5-41.2
			c4.1-1.7,9.1-1.4,13.8-0.6C30,98.4,30.4,118.8,32,139.1z M128.2,98.2c-3.2,11.7-11.4,22.1-22.6,26.9c-14.6,6.3-33.2,2.2-43.3-10
			c-6.5-7.9-9.2-18.1-11-28.1c-3.1-17.7-3.6-35.9-1.6-53.8c-5.2,10-6.4,22-7.1,33.4c-2,31.4-1,63.2,3,94.5c0.5,4,1,7.5,2.6,10.1
			c2.2,3.7,7.3,5.8,11.8,5c4.7-0.9,8.9-4.9,10-9.6c0.6-2.7,0.4-5.9,0.1-9.2c-0.3-3.8-0.6-8.1,0.4-12.5c0.6-2.5,2.7-4.3,5.3-4.4H76
			c0.1,0,0.1,0,0.2,0c4.6,0,27.3-0.3,38.3-1.2c0,0-5.6,10.7-14.8,12.1c-1.9,5.7-0.5,12.5,3.7,16.2c2.3,2,5.7,3,9.1,2.7
			c3-0.3,5.7-1.6,7.3-3.6c2.3-2.9,3.1-7,3.9-11.4C127,136.2,128.5,117.1,128.2,98.2z"/>
		<path class="st5" d="M134.5,63.1c-0.5,3.9-2.9,8-6.7,11.1c-4,3.3-9.4,5.6-16.9,7.3c-8.5,1.9-15.1,2-20.7,0.4
			c-7.8-2.3-14.3-8.4-16.9-16.1c-2.1-5.9-1.7-12.8,0.8-18.6c0.3-0.6,0.6-1.2,1.2-1.9c1.5,2.2,2.6,8.1,3.7,9.9
			c2.2,3.6,5.3,6.7,8.9,8.9c7.6,4.7,17,5.7,25.9,4.5C120.9,67.7,127.8,65.5,134.5,63.1z"/>
		<path class="st0" d="M98.7,53.4c-1.4-0.5-2.7-1.8-2.8-3.3c-0.1-2.2,2.3-3.7,4.4-4.4c5.9-2,12.6-1.8,18.4,0.6
			c1.7,0.7,3.4,1.8,3.6,3.6c0.2,2-1.9,3.6-3.9,3.8c-2,0.2-3.9-0.5-5.9-0.8C108,52,103.4,55.1,98.7,53.4z"/>
	</g>
	<g>
		<g>
			<path d="M160.4,196.9c-0.9,0-1.8-0.1-2.7-0.2c-6.1-1.1-11.2-6-12.6-12.1c0-0.2-0.1-0.4-0.1-0.5c-1,2.2-2.4,4.2-4.2,5.7
				c-2.7,2.4-6.3,3.7-10.1,3.7c-0.5,0-1,0-1.5-0.1c-4.2-0.4-7.8-2.3-10.2-5.3c-2.6-3.2-3.4-7.1-4-10.4c-2.4-14.1-3.2-28.5-2.2-42.8
				c-2.8-3.6-4.3-7.9-3.9-12c0.4-5.4,3.7-10.5,9.1-14.4c0.4-0.3,0.8-0.5,1.2-0.8c0.8-2.4,2-4.5,3-5.9c1.8-2.6,4.2-5,6.6-6.5
				c4-2.5,8.4-3.8,12.1-4.7c1.2-0.3,2.4-0.5,3.8-0.5c0.7,0,1.3,0,2,0.1l0.1,0c0.5,0,1,0.1,1.4,0.1c0.3,0,0.6,0,0.9-0.1
				c0.9-0.1,1.8-0.2,2.7-0.2c3.8,0,7.6,1.1,11.1,3.3c3.8,2.3,7.1,5.8,9.4,9.8c2.3,4.1,3.8,8.7,4.6,14.6c0.1,0,0.7,0,0.7,0
				c3.1,0,7.9,0.1,11.3,3.8c2.9,3.2,3.1,7.3,3.1,9.7c0.3,7.9,0.6,16.9,0.4,25.6c-0.1,5.2-0.9,11.2-5.3,15.3c-2.6,2.4-6.2,3.8-10.5,4
				c-0.2,1.6-0.3,3-0.5,4.5c-0.4,3.1-0.9,6.2-2.7,9.1C170.7,194.2,165.7,196.9,160.4,196.9z"/>
			<path class="st0" d="M151.8,92.6c3.3,0,6.7,1,9.8,2.9c3.5,2.1,6.5,5.3,8.5,8.9c2.8,4.9,4,10.5,4.6,15.8c0.9,0.1,1.9,0.1,2.9,0.1
				c3,0,6.8,0,9.4,3c2.3,2.5,2.4,5.9,2.5,8.1c0.3,8.3,0.6,16.9,0.4,25.5c-0.1,5-0.8,10-4.5,13.5c-2.9,2.7-6.6,3.4-10,3.4
				c-0.3,0-0.7,0-1,0c-0.2,2.2-0.5,4.4-0.8,6.7c-0.4,2.8-0.8,5.6-2.3,8.1c-2.2,3.7-6.5,5.9-10.8,5.9c-0.8,0-1.5-0.1-2.3-0.2
				c-5.2-0.9-9.4-5-10.6-10.2c-0.6-2.4-0.4-4.9-0.2-7c0.1-0.9,0.1-1.8,0.1-2.7c-1.1,0-2.4,0-3.8,0c0.9,5-0.7,10.3-4.5,13.6
				c-2.3,2-5.3,3.1-8.5,3.1c-0.4,0-0.9,0-1.3-0.1c-3.4-0.3-6.4-1.9-8.4-4.4c-2.2-2.8-2.9-6.1-3.5-9.3c-2.5-14.2-3.2-28.7-2.1-43.1
				h0.1c-2.9-3.2-4.4-7.2-4.1-11.1c0.4-4.6,3.2-9,8.1-12.5c0.6-0.4,1.2-0.8,1.9-1.2c0.6-2.4,1.8-4.6,2.9-6.1
				c1.7-2.4,3.8-4.5,5.9-5.8c3.7-2.3,7.9-3.5,11.4-4.4c1.2-0.3,2.2-0.4,3.2-0.4c0.7,0,1.3,0,2,0.1c0.6,0,1.1,0.1,1.6,0.1
				c0.4,0,0.8,0,1.2-0.1C150.2,92.7,151,92.6,151.8,92.6 M151.8,87.6l0,5L151.8,87.6c-1,0-2.1,0.1-3.1,0.2c-0.2,0-0.3,0-0.5,0
				c-0.3,0-0.8,0-1.2-0.1l-0.2,0c-0.6,0-1.3-0.1-2.1-0.1c-1.6,0-3,0.2-4.4,0.5c-3.9,1-8.5,2.3-12.8,5c-2.7,1.7-5.3,4.2-7.3,7.2
				c-1.3,1.9-2.3,3.8-3,5.8c-0.2,0.1-0.3,0.2-0.5,0.3c-6.1,4.3-9.7,10.1-10.2,16.2c-0.4,4.5,1,9.1,3.9,13
				c-0.9,14.1-0.1,28.4,2.3,42.4c0.6,3.6,1.5,7.8,4.5,11.5c2.9,3.6,7.1,5.8,11.9,6.2l0,0l0,0c0.6,0,1.2,0.1,1.7,0.1
				c4.4,0,8.6-1.5,11.8-4.3c0.7-0.6,1.4-1.3,2-2c2.6,4.8,7.4,8.4,12.8,9.4c1.1,0.2,2.1,0.3,3.2,0.3c6.2,0,12-3.2,15.1-8.3
				c2-3.3,2.6-6.8,3-10.1c0.1-0.8,0.2-1.6,0.3-2.5c4-0.5,7.3-2,10-4.5c5.1-4.7,6-11.3,6.1-17c0.2-8.9-0.1-17.8-0.4-25.8
				c-0.1-2.6-0.3-7.4-3.8-11.3c-3.6-4-8.3-4.5-11.7-4.6c-0.9-5.2-2.4-9.5-4.6-13.4c-2.5-4.4-6.1-8.2-10.3-10.7
				C160.3,88.9,156,87.6,151.8,87.6L151.8,87.6z"/>
		</g>
		<path class="st6" d="M123.7,176.3c0.4,2.5,0.9,4.8,2.2,6.4c0.9,1.1,2.4,1.9,4.1,2c1.9,0.2,3.8-0.4,5.1-1.5c2.3-2,3.2-5.9,2.1-9
			c-5.1-0.8-8.2-6.7-8.2-6.7c6.1,0.5,18.8,0.7,21.4,0.7c0,0,0.1,0,0.1,0h0.1c1.4,0.1,2.7,1.1,3,2.5c0.5,2.4,0.4,4.9,0.2,7
			c-0.1,1.9-0.3,3.6,0.1,5.1c0.6,2.6,2.9,4.9,5.6,5.3c2.5,0.5,5.3-0.7,6.6-2.8c0.9-1.5,1.2-3.4,1.5-5.6c2.2-17.4,2.8-35.2,1.7-52.7
			c-0.4-6.4-1-13-4-18.6c-0.1-0.3-0.3-0.5-0.4-0.7c-2.6-4.7-8.2-9.3-14.3-8.5c-1.6,0.2-2.9,0.1-4.1,0.1S144,99,143,99.3
			c-3.1,0.8-6.7,1.8-9.6,3.7c-1,0.7-2.2,1.7-3.2,2.9c5.1-1.2,10.5-1.1,15.7,0.2c3.4,0.9,9,2.4,11.2,7.5c2.1,4.7,2.3,10.2,0.7,15
			c-2.1,6.2-7.4,11.2-13.7,13c-2,0.6-4.2,0.9-6.5,0.9c-2.5,0-5.2-0.3-8.2-1c-3.1-0.7-5.8-1.6-8.1-2.8c-0.1,2-0.2,3.9-0.2,5.9
			C121.1,155.2,121.9,165.8,123.7,176.3z M174.9,167.5c2.5,0.1,4.7-0.3,6.2-1.7c2-1.9,2.4-5.4,2.5-9c0.2-7.6,0-15.4-0.3-23
			c0-0.7-0.1-1.4-0.1-2.1c0-1.3-0.1-3.3-0.9-4.1c-0.7-0.8-2.3-0.9-4.8-0.9c-0.7,0-1.5,0-2.3-0.1c0.1,2.3,0.2,4.5,0.3,6.8
			C176,144.8,175.8,156.1,174.9,167.5z"/>
		<path class="st3" d="M117.7,123.7c0.1-1.6,1-4.7,5.5-7.9c4.1-3,9.3-4.5,14.5-4.5c2.3,0,4.5,0.3,6.7,0.9c4,1.1,5.6,2,6.4,2.9
			c0.3,0.4,0.5,0.7,0.6,1c1.4,3.3,1.6,7.1,0.5,10.4c-1.5,4.3-5.1,7.7-9.5,9c-3.1,0.9-6.8,0.8-11.6-0.2c-4.2-0.9-7.2-2.2-9.5-4.1
			c-2.1-1.7-3.4-4-3.7-6.2C117.6,124.6,117.6,124.1,117.7,123.7z"/>
		<path class="st4" d="M175.6,133.4c2.6-0.4,5.4-0.6,7.7,0.4c0.3,7.6,0.5,15.4,0.3,23c-0.1,3.6-0.5,7.1-2.5,9
			c-1.5,1.4-3.8,1.7-6.2,1.7C175.8,156.1,176,144.8,175.6,133.4z M123.7,176.3c0.4,2.5,0.9,4.8,2.2,6.4c0.9,1.1,2.4,1.9,4.1,2
			c1.9,0.2,3.8-0.4,5.1-1.5c2.3-2,3.2-5.9,2.1-9c-5.1-0.8-8.2-6.7-8.2-6.7c6.1,0.5,18.8,0.7,21.4,0.7c0,0,0.1,0,0.1,0h0.1
			c1.4,0.1,2.7,1.1,3,2.5c0.5,2.4,0.4,4.9,0.2,7c-0.1,1.9-0.3,3.6,0.1,5.1c0.6,2.6,2.9,4.9,5.6,5.3c2.5,0.5,5.3-0.7,6.6-2.8
			c0.9-1.5,1.2-3.4,1.5-5.6c2.2-17.4,2.8-35.2,1.7-52.7c-0.4-6.4-1-13-3.9-18.6c1.2,10,0.9,20.1-0.9,30c-1,5.6-2.5,11.3-6.1,15.7
			c-5.6,6.8-16,9.1-24.2,5.6c-6.2-2.7-10.8-8.5-12.6-15C121.1,155.2,121.9,165.8,123.7,176.3z"/>
		<path class="st5" d="M129.3,128.1c5,0.6,10.2,0.1,14.5-2.5c2-1.2,3.8-3,5-5c0.6-1,1.2-4.3,2-5.5c0.3,0.4,0.5,0.7,0.6,1
			c1.4,3.3,1.6,7.1,0.5,10.4c-1.5,4.3-5.1,7.7-9.5,9c-3.1,0.9-6.8,0.8-11.6-0.2c-4.2-0.9-7.2-2.2-9.5-4.1c-2.1-1.7-3.4-4-3.7-6.2
			C121.5,126.4,125.3,127.6,129.3,128.1z"/>
		<path class="st0" d="M130,119.3c-1.1,0.2-2.2,0.6-3.3,0.5c-1.1-0.1-2.3-1-2.2-2.1c0.1-1,1.1-1.6,2-2c3.2-1.3,7-1.5,10.3-0.3
			c1.2,0.4,2.5,1.2,2.4,2.5c0,0.9-0.7,1.6-1.5,1.9C135.1,120.6,132.5,118.9,130,119.3z"/>
	</g>
	<g>
		<g>
			<path d="M46.9,199.9c-5.3,0-10.3-2.7-13-7.1c-1.8-2.9-2.3-6-2.7-9.1c-0.2-1.4-0.4-2.9-0.5-4.5c-4.4-0.2-7.9-1.5-10.5-4
				c-4.4-4.1-5.2-10-5.3-15.3c-0.2-8.8,0.1-17.7,0.4-25.6c0.1-2.4,0.2-6.5,3.2-9.7c3.4-3.8,8.1-3.8,11.2-3.8c0,0,0.6,0,0.7,0
				c0.9-5.9,2.4-10.6,4.6-14.6c2.3-4,5.6-7.5,9.4-9.8c3.5-2.1,7.3-3.3,11.1-3.3c0.9,0,1.8,0.1,2.7,0.2c0.3,0,0.5,0.1,0.9,0.1
				c0.5,0,0.9,0,1.4-0.1l0.2,0c0.6,0,1.3-0.1,2-0.1c1.4,0,2.6,0.1,3.8,0.5c3.8,1,8.1,2.2,12.1,4.7c2.3,1.5,4.7,3.8,6.6,6.5
				c1,1.4,2.2,3.5,3,5.9c0.4,0.3,0.8,0.5,1.1,0.8c5.5,3.9,8.7,9,9.1,14.4c0.3,4.2-1.1,8.5-3.9,12c1,14.3,0.2,28.6-2.2,42.8
				c-0.6,3.3-1.4,7.2-4,10.4c-2.4,3-6,4.9-10.2,5.3c-0.5,0-1,0.1-1.5,0.1c-3.8,0-7.4-1.3-10.1-3.7c-1.8-1.6-3.2-3.5-4.2-5.7
				c0,0.2-0.1,0.3-0.1,0.5c-1.4,6.1-6.5,10.9-12.6,12.1C48.7,199.9,47.8,199.9,46.9,199.9z"/>
			<path class="st0" d="M55.5,95.6c0.8,0,1.6,0.1,2.4,0.2c0.4,0.1,0.8,0.1,1.2,0.1c0.5,0,1,0,1.6-0.1c0.6,0,1.3-0.1,2-0.1
				c1,0,2,0.1,3.2,0.4c3.6,0.9,7.7,2.1,11.4,4.4c2,1.3,4.2,3.4,5.9,5.8c1.1,1.5,2.3,3.7,2.9,6.1c0.6,0.4,1.3,0.8,1.9,1.2
				c4.9,3.5,7.7,7.9,8.1,12.5c0.3,3.9-1.2,7.9-4.1,11.1H92c1,14.4,0.3,28.9-2.1,43.1c-0.5,3.2-1.3,6.5-3.5,9.3c-2,2.5-5,4.1-8.4,4.4
				c-0.4,0-0.9,0.1-1.3,0.1c-3.2,0-6.2-1.1-8.5-3.1c-3.8-3.3-5.4-8.6-4.5-13.6c-1.4,0-2.7,0-3.8,0c0,0.8,0.1,1.7,0.1,2.7
				c0.2,2.1,0.3,4.6-0.2,7c-1.2,5.1-5.4,9.2-10.6,10.2c-0.8,0.1-1.5,0.2-2.3,0.2c-4.4,0-8.6-2.2-10.8-5.9c-1.5-2.5-2-5.3-2.3-8.1
				c-0.3-2.2-0.5-4.4-0.8-6.7c-0.3,0-0.7,0-1,0c-3.4,0-7.2-0.7-10-3.4c-3.7-3.5-4.4-8.5-4.5-13.5c-0.2-8.5,0.1-17.2,0.4-25.5
				c0.1-2.2,0.2-5.6,2.5-8.1c2.7-2.9,6.4-3,9.4-3c1,0,2,0,2.9-0.1c0.6-5.3,1.8-10.8,4.6-15.8c2-3.6,5.1-6.8,8.5-8.9
				C48.9,96.6,52.2,95.6,55.5,95.6 M55.5,90.6L55.5,90.6c-4.2,0-8.5,1.3-12.4,3.6c-4.2,2.5-7.8,6.3-10.3,10.7
				c-2.2,3.8-3.6,8.1-4.6,13.4c-3.4,0.1-8.1,0.6-11.7,4.6c-3.5,3.9-3.7,8.7-3.8,11.3c-0.3,7.9-0.6,16.9-0.4,25.8
				c0.1,5.8,1,12.3,6.1,17c2.6,2.4,6,3.9,10,4.5c0.1,0.8,0.2,1.7,0.3,2.5c0.4,3.3,1,6.7,3,10.1c3.1,5.1,8.9,8.3,15.1,8.3
				c1,0,2.1-0.1,3.1-0.3c5.5-1,10.2-4.6,12.9-9.4c0.6,0.7,1.3,1.4,2,2c3.2,2.8,7.4,4.3,11.8,4.3c0.5,0,1.1,0,1.7-0.1l0,0l0,0
				c4.8-0.4,9-2.7,11.9-6.2c3-3.7,3.9-7.9,4.5-11.5c2.4-14,3.2-28.3,2.3-42.4c2.8-3.9,4.2-8.5,3.9-13c-0.5-6.1-4.1-11.9-10.2-16.2
				c-0.2-0.1-0.3-0.2-0.5-0.4c-0.7-1.9-1.7-3.9-3-5.7c-2.1-2.9-4.7-5.5-7.3-7.2c-4.3-2.7-8.9-4-12.8-5c-1.4-0.4-2.9-0.5-4.4-0.5
				c-0.8,0-1.5,0-2.1,0.1l-0.1,0c-0.5,0-0.9,0.1-1.3,0.1c-0.2,0-0.4,0-0.5,0C57.6,90.7,56.5,90.6,55.5,90.6L55.5,90.6z"/>
		</g>
		<path class="st1" d="M86.1,147.6c0-2-0.1-3.9-0.2-5.9c-2.3,1.1-4.9,2-8.1,2.8c-3,0.7-5.7,1-8.2,1c-2.3,0-4.5-0.3-6.5-0.9
			c-6.3-1.8-11.5-6.8-13.7-13c-1.7-4.8-1.4-10.3,0.7-15c2.3-5.1,7.9-6.6,11.2-7.5c5.2-1.4,10.6-1.4,15.7-0.2c-1-1.2-2.1-2.3-3.2-2.9
			c-3-1.9-6.5-2.9-9.6-3.7c-1-0.3-2-0.2-3.1-0.1c-1.2,0.1-2.5,0.2-4.1-0.1c-6-0.9-11.6,3.8-14.3,8.5c-0.1,0.2-0.3,0.5-0.4,0.7
			c-2.9,5.6-3.6,12.3-4,18.6c-1.1,17.5-0.5,35.3,1.7,52.7c0.3,2.2,0.6,4.2,1.5,5.6c1.2,2,4.1,3.2,6.6,2.8c2.6-0.5,5-2.7,5.6-5.3
			c0.3-1.5,0.2-3.3,0.1-5.1c-0.2-2.1-0.3-4.5,0.2-7c0.3-1.4,1.5-2.4,3-2.5h0.1c0,0,0.1,0,0.1,0c2.5,0,15.2-0.1,21.4-0.7
			c0,0-3.1,6-8.2,6.7c-1.1,3.2-0.3,7,2.1,9c1.3,1.1,3.2,1.7,5.1,1.5c1.7-0.2,3.2-0.9,4.1-2c1.3-1.6,1.7-3.9,2.2-6.4
			C85.4,168.8,86.2,158.2,86.1,147.6z M31.7,136.4c0.1-2.3,0.2-4.5,0.3-6.8c-0.8,0-1.6,0-2.3,0.1c-2.5,0-4.1,0.1-4.8,0.9
			c-0.8,0.8-0.8,2.8-0.9,4.1c0,0.7,0,1.4-0.1,2.1c-0.3,7.6-0.5,15.4-0.3,23c0.1,3.6,0.5,7.1,2.5,9c1.5,1.4,3.8,1.7,6.2,1.7
			C31.5,159.1,31.3,147.8,31.7,136.4z"/>
		<path class="st3" d="M89.6,128.1c-0.3,2.2-1.6,4.5-3.7,6.2c-2.2,1.8-5.2,3.1-9.5,4.1c-4.7,1.1-8.4,1.1-11.6,0.2
			c-4.4-1.3-8-4.7-9.5-9c-1.2-3.3-1-7.1,0.5-10.4c0.1-0.3,0.3-0.7,0.6-1c0.8-0.9,2.4-1.9,6.4-2.9c2.2-0.6,4.5-0.9,6.7-0.9
			c5.2,0,10.3,1.5,14.5,4.5c4.5,3.2,5.3,6.3,5.5,7.9C89.7,127.1,89.7,127.6,89.6,128.1z"/>
		<path class="st4" d="M32.4,170.5c-2.5,0.1-4.7-0.3-6.2-1.7c-2-1.9-2.4-5.4-2.5-9c-0.2-7.6,0-15.4,0.3-23c2.3-0.9,5.1-0.8,7.7-0.4
			C31.3,147.8,31.5,159.1,32.4,170.5z M86.1,147.6c-1.8,6.5-6.4,12.3-12.6,15c-8.1,3.5-18.5,1.3-24.2-5.6
			c-3.6-4.4-5.1-10.1-6.1-15.7c-1.7-9.9-2-20.1-0.9-30c-2.9,5.6-3.6,12.3-3.9,18.6c-1.1,17.5-0.5,35.3,1.7,52.7
			c0.3,2.2,0.6,4.2,1.5,5.6c1.2,2,4.1,3.2,6.6,2.8c2.6-0.5,5-2.7,5.6-5.3c0.3-1.5,0.2-3.3,0.1-5.1c-0.2-2.1-0.3-4.5,0.2-7
			c0.3-1.4,1.5-2.4,3-2.5h0.1c0,0,0.1,0,0.1,0c2.5,0,15.2-0.1,21.4-0.7c0,0-3.1,6-8.2,6.7c-1.1,3.2-0.3,7,2.1,9
			c1.3,1.1,3.2,1.7,5.1,1.5c1.7-0.2,3.2-0.9,4.1-2c1.3-1.6,1.7-3.9,2.2-6.4C85.4,168.8,86.2,158.2,86.1,147.6z"/>
		<path class="st5" d="M89.6,128.1c-0.3,2.2-1.6,4.5-3.7,6.2c-2.2,1.8-5.2,3.1-9.5,4.1c-4.7,1.1-8.4,1.1-11.6,0.2
			c-4.4-1.3-8-4.7-9.5-9c-1.2-3.3-1-7.1,0.5-10.4c0.1-0.3,0.3-0.7,0.6-1c0.8,1.3,1.5,4.5,2,5.5c1.2,2,3,3.8,5,5
			c4.3,2.6,9.5,3.2,14.5,2.5C82,130.6,85.8,129.4,89.6,128.1z"/>
		<path class="st0" d="M69.6,122.6c-0.8-0.3-1.5-1-1.5-1.9c0-1.2,1.3-2.1,2.4-2.5c3.3-1.1,7-1,10.3,0.3c0.9,0.4,1.9,1,2,2
			c0.1,1.1-1,2-2.2,2.1c-1.1,0.1-2.2-0.3-3.3-0.5C74.8,121.9,72.2,123.6,69.6,122.6z"/>
	</g>
</g>
</svg>
