<?xml version="1.0" encoding="utf-8"?>
<!-- Generator: Adobe Illustrator 24.1.1, SVG Export Plug-In . SVG Version: 6.00 Build 0)  -->
<svg version="1.1" id="Ebene_1" xmlns="http://www.w3.org/2000/svg" xmlns:xlink="http://www.w3.org/1999/xlink" x="0px" y="0px"
	 viewBox="0 0 180 200" style="enable-background:new 0 0 180 200;" xml:space="preserve">
<style type="text/css">
	.st0{fill:#FFFFFF;}
</style>
<g>
	<path class="st0" d="M90,200L90,200c-5.52,0-10-4.48-10-10V10c0-5.52,4.48-10,10-10h0c5.52,0,10,4.48,10,10v180
		C100,195.52,95.52,200,90,200z"/>
	<path class="st0" d="M130,175L130,175c-5.52,0-10-4.48-10-10V35c0-5.52,4.48-10,10-10h0c5.52,0,10,4.48,10,10v130
		C140,170.52,135.52,175,130,175z"/>
	<path class="st0" d="M170,150L170,150c-5.52,0-10-4.48-10-10V60c0-5.52,4.48-10,10-10h0c5.52,0,10,4.48,10,10v80
		C180,145.52,175.52,150,170,150z"/>
	<path class="st0" d="M10,150L10,150c-5.52,0-10-4.48-10-10l0-80c0-5.52,4.48-10,10-10h0c5.52,0,10,4.48,10,10v80
		C20,145.52,15.52,150,10,150z"/>
	<path class="st0" d="M50,175L50,175c-5.52,0-10-4.48-10-10V35c0-5.52,4.48-10,10-10h0c5.52,0,10,4.48,10,10v130
		C60,170.52,55.52,175,50,175z"/>
</g>
</svg>
